<svg width="487" height="682" viewBox="0 0 487 682" fill="none" xmlns="http://www.w3.org/2000/svg">
<path d="M86.4141 4.2667C64.1474 19.2 38.2807 78.5334 22.0141 152C12.8141 193.467 5.21406 248.933 1.74739 300.667C-0.119278 328.267 -0.652612 407.867 0.947388 422.8L2.01406 432.8L19.0807 441.2L36.0141 449.6L46.9474 444.133C52.9474 441.2 58.9474 438.667 60.2807 438.667C64.4141 438.667 92.0141 452.933 94.4141 456.133C98.9474 462.667 96.4141 471.067 88.9474 474.133C84.4141 476.133 83.8807 476 72.4141 470.533L60.4141 464.8L50.0141 470C44.1474 472.8 37.6141 475.067 35.4807 474.933C33.3474 474.933 26.0141 472.133 19.2141 468.667C12.4141 465.333 6.54739 462.8 6.14739 463.2C5.34739 464.133 8.41406 483.067 9.61406 484.133C10.1474 484.667 18.8141 488.133 28.9474 491.867L47.2141 498.667L57.8807 493.333C63.7474 490.4 70.2807 488 72.5474 488C77.0807 488 101.747 499.867 105.881 504C110.014 508.133 109.481 516.533 105.081 520.667C100.147 525.333 95.4807 524.8 83.2141 518.667L72.5474 513.333L61.8807 518.667C56.0141 521.6 49.8807 524 48.2807 524C46.5474 524 38.9474 521.6 31.3474 518.667C23.6141 515.733 17.0807 513.6 16.8141 514C15.6141 515.2 27.4807 547.333 34.1474 561.067C54.9474 604 87.6141 638.133 127.081 658C146.281 667.6 176.147 676.533 201.881 680.133C220.147 682.8 270.547 682.4 288.414 679.6C340.147 671.2 379.614 652.133 411.214 620C426.814 604.133 438.947 586.8 450.281 564C459.081 546.4 471.081 515.467 469.614 514C469.347 513.6 462.814 515.733 455.081 518.667C447.481 521.6 439.881 524 438.147 524C436.547 524 430.414 521.6 424.547 518.667L413.881 513.333L403.214 518.667C390.947 524.8 386.281 525.333 381.347 520.667C376.947 516.533 376.414 508.133 380.547 504C384.681 499.867 409.347 488 413.881 488C416.147 488 422.681 490.4 428.547 493.333L439.214 498.667L457.481 491.867C467.614 488.133 476.281 484.667 476.814 484.133C478.014 483.067 481.081 464.133 480.281 463.2C479.881 462.8 474.014 465.333 467.214 468.667C460.414 472.133 453.081 474.933 450.947 474.933C448.814 475.067 442.281 472.8 436.414 470L426.014 464.8L414.014 470.533C402.547 476 402.014 476.133 397.481 474.133C390.014 471.067 387.481 462.667 392.014 456.133C394.414 452.933 422.014 438.667 426.147 438.667C427.481 438.667 433.481 441.2 439.481 444.133L450.414 449.6L467.347 441.2L484.414 432.8L485.481 424.133C487.081 410.933 486.547 325.2 484.681 300C476.681 189.867 457.747 102.667 429.214 44.6667C415.347 16.5334 400.547 2.95387e-05 389.214 2.95387e-05C369.481 2.95387e-05 331.614 40.2667 293.614 102C287.747 111.467 282.014 120 280.947 120.933C278.147 123.2 208.814 123.2 205.747 120.933C204.547 120 199.614 112.667 194.547 104.667C162.147 52.2667 130.281 14.4 109.747 4.13336C99.0807 -1.19997 94.5474 -1.19997 86.4141 4.2667ZM114.014 39.3334C123.881 44.5334 163.214 96.4 165.614 107.6C166.947 114.133 165.614 121.867 162.281 126.4C158.414 131.733 152.681 135.067 140.947 139.333C127.214 144.133 108.281 153.867 92.6807 163.867C81.4807 171.067 79.3474 172 73.3474 172C60.5474 172 50.0141 163.067 48.9474 151.067C47.6141 137.733 63.6141 86.8 79.2141 54.2667C87.0807 38 100.414 32.4 114.014 39.3334ZM396.147 40.2667C402.014 43.7334 404.281 47.3334 412.281 65.6C424.014 92.1334 437.881 137.2 437.881 148.667C437.881 154.133 434.281 162 429.614 166.267C425.347 170.267 420.147 172 412.681 172C407.081 172 404.681 170.933 392.547 163.2C377.881 153.733 353.747 141.6 342.147 137.867C325.214 132.533 317.747 121.733 320.814 107.467C322.681 98.9334 354.547 54.9334 367.614 42.9334C375.214 35.8667 387.214 34.8 396.147 40.2667ZM256.014 149.2C264.147 152.933 270.681 161.467 274.947 174C278.547 184.667 278.547 184.933 278.547 222C278.547 250.667 277.881 263.067 276.147 275.333C269.081 322.8 256.814 344.533 239.081 340.667C226.281 337.867 216.014 314.667 210.281 275.333C207.214 254.4 206.814 191.333 209.747 180C215.481 157.467 226.281 146.667 243.214 146.667C247.481 146.667 252.814 147.733 256.014 149.2ZM158.814 234C166.681 237.333 172.414 242.4 178.014 251.067C195.214 277.733 189.881 304 166.147 309.467C158.947 311.067 144.814 308.4 134.547 303.467C117.481 295.333 109.347 283.733 109.347 268C109.347 253.467 117.614 240.4 130.414 234.533C137.214 231.467 152.014 231.2 158.814 234ZM357.347 235.733C370.147 242.267 377.214 255.2 376.281 270.267C375.347 286 368.147 295.733 351.881 303.467C326.147 315.733 304.681 309.733 299.081 288.8C294.014 270.267 309.747 240.667 328.014 233.867C335.347 231.2 350.281 232.133 357.347 235.733ZM55.8807 270.933C58.4141 273.2 59.6141 276 60.5474 281.867C62.1474 292.267 66.1474 299.867 74.2807 308.933C83.0807 318.4 91.2141 324.4 107.881 333.333C155.481 358.8 179.747 381.467 190.147 410.667C193.081 419.067 193.214 420.933 193.614 468.267L194.014 517.333L190.414 520.667C185.747 524.933 179.214 525.067 174.814 520.933C172.681 519.2 170.414 514.267 168.547 508C166.947 502.533 164.147 495.2 162.414 491.733C157.347 481.6 143.347 468 124.147 454.533C104.947 440.933 85.3474 422.933 74.9474 409.333C66.0141 397.467 52.1474 368.933 47.2141 352C41.3474 331.733 37.7474 311.067 37.0807 292C36.4141 274.533 36.8141 272.933 42.5474 269.6C46.8141 267.2 52.1474 267.733 55.8807 270.933ZM443.614 269.6C448.681 272.267 449.747 274.933 449.881 285.333C449.881 304.667 444.814 334.667 437.747 356.667C432.547 372.8 419.614 398.667 411.347 409.467C401.214 422.667 381.881 440.533 362.014 454.667C342.814 468.267 329.081 481.733 324.014 491.733C322.281 495.2 319.481 502.533 317.881 508C316.014 514.267 313.747 519.2 311.614 520.933C307.081 525.2 300.147 525.067 295.747 520.667L292.414 517.333L292.814 468.267C293.214 421.067 293.347 419.067 296.281 410.667C306.547 382 330.947 358.8 375.881 334.667C394.547 324.667 402.947 318.8 411.481 309.6C420.281 300.133 424.147 292.533 425.881 281.867C427.747 270.133 435.081 265.067 443.614 269.6ZM93.2141 539.2C106.947 545.733 117.481 556.667 135.481 583.333C152.814 608.933 164.281 623.733 170.814 628.667C176.681 633.2 177.347 633.333 188.414 633.333C199.347 633.333 219.614 630 227.614 626.8C233.081 624.667 232.281 620.667 225.881 617.333C217.214 612.933 206.814 601.2 200.414 588.667C191.347 570.667 192.681 566.133 209.747 556.933C228.681 546.533 257.747 546.533 276.681 556.933C293.747 566.133 295.081 570.667 286.014 588.667C279.481 601.333 269.481 612.8 260.814 617.2C254.147 620.667 253.347 624.667 258.947 626.8C266.814 630 287.081 633.333 298.014 633.333C308.547 633.333 309.881 633.067 314.814 629.467C321.347 624.667 329.614 614.267 347.614 588C369.214 556.533 379.347 545.733 393.214 539.2C401.347 535.333 402.681 535.333 408.147 538.533C417.081 544.133 415.081 555.333 404.147 560.933C394.414 565.867 385.214 576.133 368.547 600.667C343.881 637.2 335.347 646.533 320.281 654.4C313.881 657.733 312.014 658 299.214 657.867C283.481 657.6 273.481 656.133 255.614 651.2L243.214 647.733L230.947 651.2C212.947 656.133 202.947 657.6 187.214 657.867C174.414 658 172.547 657.733 166.147 654.4C151.081 646.533 142.547 637.2 117.881 600.667C101.214 576.133 92.0141 565.867 82.4141 560.933C70.6807 555.067 68.9474 543.467 78.9474 538.133C83.8807 535.333 85.4807 535.467 93.2141 539.2Z" fill="black"/>
<path d="M95.8808 76.1334C86.0142 99.4667 71.0808 146.667 73.4808 146.667C73.8808 146.667 78.8142 143.733 84.4142 140.133C97.3475 131.867 113.881 123.6 129.214 117.733C135.748 115.2 141.348 112.933 141.614 112.667C142.814 111.6 111.081 69.2001 104.814 63.6001C102.281 61.2001 102.148 61.4667 95.8808 76.1334Z" fill="black"/>
<path d="M380.547 64C363.081 85.8667 350.414 103.067 345.481 111.6C344.814 112.533 346.947 113.867 351.481 115.333C362.947 119.067 390.281 132.533 402.547 140.533C410.547 145.733 413.881 147.333 413.347 145.733C412.947 144.4 411.747 139.467 410.547 134.667C405.481 114.267 385.747 61.2 383.347 61.3334C382.947 61.4667 381.614 62.5334 380.547 64Z" fill="black"/>
<path d="M238.014 174.133C233.081 180.4 231.881 190.533 232.014 224.667C232.014 248.533 232.681 260 234.414 270C237.481 288 242.147 308 243.214 308C244.281 308 248.947 288 252.014 270C255.081 252.933 255.481 196.8 252.814 185.067C250.814 176.533 246.947 170.667 243.214 170.667C241.881 170.667 239.481 172.267 238.014 174.133Z" fill="black"/>
<path d="M137.747 259.867C132.281 265.333 132.414 272.133 137.881 277.333C142.414 281.6 152.281 285.333 158.814 285.333C163.081 285.333 163.214 285.067 163.214 280.267C163.214 277.6 161.747 272.267 160.014 268.533C154.147 256 145.214 252.533 137.747 259.867Z" fill="black"/>
<path d="M333.214 258.933C328.547 262.667 323.214 273.867 323.214 280.267C323.214 285.067 323.347 285.333 327.614 285.333C334.147 285.333 344.014 281.6 348.547 277.333C354.014 272.133 354.147 265.333 348.681 259.867C343.881 255.2 338.414 254.8 333.214 258.933Z" fill="black"/>
<path d="M68.5474 337.867C68.5474 338.267 70.1474 343.467 72.014 349.6C76.2807 363.333 85.3474 381.6 93.0807 392.533C101.481 404.267 121.614 423.067 138.281 434.533C146.014 439.867 156.414 447.867 161.214 452.267L169.881 460.267V445.067C169.881 419.467 165.214 407.467 148.547 390.667C136.281 378.4 124.281 370 98.414 356C87.4807 350 76.2807 343.333 73.614 341.2C70.814 338.933 68.5474 337.467 68.5474 337.867Z" fill="black"/>
<path d="M411.881 341.867C409.614 343.6 398.814 350 387.881 356C362.014 370.267 350.281 378.4 337.881 390.667C321.347 407.333 316.547 419.333 316.547 445.067V460.267L325.614 452C330.547 447.6 340.814 439.6 348.547 434.267C364.681 423.2 384.947 404.267 393.214 392.667C396.281 388.267 401.614 379.2 404.814 372.667C409.881 362.533 412.281 356.4 417.214 340.267C418.014 337.867 416.414 338.267 411.881 341.867Z" fill="black"/>
<path d="M228.547 574.933C226.014 575.6 223.48 576.667 222.814 577.2C221.214 578.667 229.747 590.4 235.08 594.133C240.947 598.133 245.48 598.267 251.214 594.267C256.014 591.067 264.947 579.067 263.88 577.333C261.747 573.867 238.147 572.133 228.547 574.933Z" fill="black"/>
</svg>
