<svg width="500" height="683" viewBox="0 0 500 683" fill="none" xmlns="http://www.w3.org/2000/svg">
<path d="M101.744 1.77732C79.4774 8.84398 55.6107 44.3107 37.8774 96.844C13.6107 168.844 0.0106916 265.777 0.0106916 369.111C-0.122642 413.377 0.944025 430.311 5.87736 461.111C26.8107 593.777 100.811 669.244 221.611 681.111C298.144 688.577 370.944 666.444 418.011 621.377C479.344 562.444 504.811 471.777 499.211 333.244C494.144 211.511 473.344 108.977 441.477 49.1107C420.811 10.044 398.277 -5.68935 374.277 1.91065C348.144 10.044 312.411 48.3107 277.344 105.777L272.411 113.777H249.877L227.211 113.644L217.077 97.7773C182.144 43.1107 152.011 11.244 126.677 2.44398C118.011 -0.622684 110.277 -0.756017 101.744 1.77732ZM123.877 25.7773C144.011 35.7773 171.077 66.9773 200.411 114.044C207.877 125.911 214.944 135.911 216.144 136.311C221.211 137.777 282.811 136.844 284.811 135.377C286.011 134.444 290.944 127.111 295.744 119.111C315.211 87.244 335.344 60.5773 353.077 43.1107C373.211 23.3773 386.144 18.7107 396.944 26.844C420.011 44.444 444.544 104.977 459.744 181.377C473.877 253.244 481.077 359.377 475.477 418.177L474.811 426.577L459.211 434.444L443.611 442.177L433.211 436.977C427.477 434.177 421.744 431.777 420.544 431.777C416.944 431.777 392.144 444.311 389.211 447.644C384.011 453.511 387.344 464.044 395.077 465.777C398.277 466.444 401.611 465.511 409.744 461.644L420.411 456.711L430.811 461.511C436.544 464.311 442.144 466.444 443.211 466.444C444.411 466.444 450.811 463.777 457.611 460.444C464.411 457.111 470.411 454.444 471.077 454.444C472.277 454.444 468.944 473.111 467.477 474.577C466.811 474.977 458.811 478.311 449.611 481.777L432.811 488.044L423.077 483.111C417.611 480.444 411.344 478.177 409.077 478.177C404.144 478.177 381.877 488.977 377.877 493.377C371.744 499.911 377.211 511.777 386.411 511.777C387.477 511.777 392.677 509.644 397.877 507.111C403.211 504.577 408.277 502.444 409.344 502.444C410.277 502.444 415.344 504.577 420.411 507.111C425.477 509.644 430.677 511.777 432.011 511.777C433.344 511.644 440.411 509.377 447.744 506.577C455.077 503.777 461.211 501.644 461.477 501.777C462.144 502.444 453.077 527.777 447.744 539.777C424.411 592.577 384.277 629.644 331.877 647.111C281.744 663.777 217.744 663.777 167.477 647.111C115.211 629.644 75.0774 592.444 51.744 539.777C46.4107 527.777 37.344 502.444 38.0107 501.777C38.2774 501.644 44.4107 503.777 51.744 506.577C59.0774 509.377 66.2774 511.644 67.744 511.777C69.344 511.777 74.6774 509.644 79.6107 507.111C84.6774 504.577 89.6107 502.444 90.6774 502.444C91.6107 502.444 96.6774 504.577 101.744 507.111C106.811 509.644 111.877 511.777 112.944 511.777C122.277 511.777 127.877 499.911 121.611 493.377C117.611 488.977 95.344 478.177 90.4107 478.177C88.144 478.177 81.8774 480.311 76.544 482.977L66.944 487.911L49.344 481.377L31.744 474.711L30.144 468.977C28.6774 463.111 27.8774 454.444 28.944 454.444C29.344 454.444 35.0774 457.111 41.8774 460.444C48.6774 463.777 55.0774 466.444 56.2774 466.444C57.344 466.444 62.944 464.311 68.6774 461.511L79.0774 456.711L89.744 461.644C97.8774 465.511 101.211 466.444 104.411 465.777C112.011 464.177 115.477 453.511 110.411 447.777C107.877 444.977 82.2774 431.777 79.344 431.777C78.4107 431.777 72.8107 434.177 66.944 437.111L56.2774 442.577L40.4107 434.311L24.6774 425.911L23.8774 417.911C19.8774 374.977 23.0774 296.711 31.2107 233.777C44.6774 129.911 77.0774 39.7773 106.411 24.5773C112.011 21.644 116.144 21.9107 123.877 25.7773Z" fill="black"/>
<path d="M107.611 59.644C101.344 63.5107 98.544 67.7773 91.2106 85.244C79.2106 113.644 68.4106 149.511 68.4106 161.111C68.4106 172.311 76.4106 181.377 87.8773 183.244C94.2773 184.177 99.4773 182.311 110.677 174.711C122.144 166.844 139.344 158.044 153.077 152.977C167.344 147.777 172.544 144.311 175.744 137.644C180.011 128.711 178.144 120.977 168.677 106.977C160.411 94.5773 142.811 72.044 135.477 64.1773C133.211 61.7773 129.744 59.244 127.877 58.444C122.011 56.3107 112.144 56.844 107.611 59.644ZM129.744 92.444C141.477 106.844 155.344 126.844 154.144 127.777C153.611 128.177 148.544 130.311 143.077 132.444C130.011 137.377 112.677 146.044 101.077 153.511C96.0106 156.844 91.6106 159.377 91.344 159.244C89.744 157.511 101.744 119.244 111.211 96.444C119.077 77.3773 117.611 77.644 129.744 92.444Z" fill="black"/>
<path d="M370.011 59.5107C363.077 63.244 331.477 103.111 323.744 117.911C319.611 125.777 322.011 138.711 328.544 144.711C330.277 146.177 337.744 149.777 345.077 152.444C360.144 158.044 377.077 166.577 388.811 174.711C400.011 182.311 405.211 184.177 411.611 183.244C422.944 181.377 431.077 172.177 431.077 161.111C431.077 149.511 419.477 111.511 407.477 83.7773C400.011 66.7107 397.077 62.1773 390.811 58.9773C385.877 56.444 375.344 56.7107 370.011 59.5107ZM385.477 89.9107C393.077 106.977 400.144 126.844 404.411 143.111C406.811 151.644 408.411 158.844 408.144 159.244C407.877 159.511 404.411 157.644 400.677 154.977C390.677 148.311 368.011 136.711 356.411 132.311C350.944 130.311 345.877 128.177 345.344 127.777C343.877 126.444 377.877 79.9107 380.411 79.9107C380.811 79.7773 383.077 84.3107 385.477 89.9107Z" fill="black"/>
<path d="M244.411 159.777C221.611 164.044 212.944 191.244 216.411 248.444C220.277 310.444 232.677 343.111 251.611 340.711C268.811 338.444 279.477 306.711 283.077 246.844C285.344 209.377 281.744 183.511 272.411 170.711C266.144 162.044 255.211 157.777 244.411 159.777ZM254.011 184.711C257.611 188.844 259.211 196.044 260.411 213.777C261.744 231.377 260.411 260.044 257.744 276.444C255.344 290.711 250.677 310.444 249.744 310.444C248.811 310.444 244.144 290.711 241.744 276.444C237.477 251.111 237.611 204.577 241.877 191.777C243.877 185.911 246.811 182.444 249.744 182.444C250.944 182.444 252.944 183.511 254.011 184.711Z" fill="black"/>
<path d="M147.077 240.977C134.544 245.377 124.411 259.777 124.411 272.977C124.411 288.711 137.211 303.244 156.277 309.244C180.811 316.844 198.277 306.444 198.144 284.444C198.011 268.844 187.611 250.044 175.211 243.244C166.144 238.311 156.677 237.511 147.077 240.977ZM165.877 264.711C171.077 269.111 174.944 277.377 175.077 284.044C175.077 288.444 174.677 289.111 172.011 289.111C162.011 289.111 149.344 281.911 147.611 275.111C146.144 268.977 152.544 261.244 159.344 261.111C160.544 261.111 163.477 262.711 165.877 264.711Z" fill="black"/>
<path d="M330.944 240.311C318.544 244.711 308.677 255.644 303.611 270.711C299.077 283.911 301.477 298.311 309.344 305.377C323.744 318.444 358.811 309.377 369.877 289.644C375.077 280.577 376.011 272.844 373.211 263.111C368.011 245.377 347.611 234.311 330.944 240.311ZM348.544 264.577C352.011 267.777 352.944 273.644 350.544 278.177C348.144 282.977 339.477 287.377 330.677 288.577L324.411 289.511V284.311C324.544 272.711 334.411 260.177 342.277 261.644C344.411 262.177 347.344 263.377 348.544 264.577Z" fill="black"/>
<path d="M59.7443 276.444C55.7443 280.444 55.4776 286.844 58.4109 310.044C62.5443 342.177 71.4776 369.911 84.8109 392.577C94.2776 408.711 116.678 431.377 138.411 446.577C166.811 466.577 175.611 477.777 181.744 502.044C182.811 506.177 184.278 508.311 187.078 509.777C192.811 512.711 196.144 512.177 200.678 507.777L204.678 503.777L204.144 460.044C203.478 411.777 203.344 410.444 194.011 392.444C190.544 385.911 185.611 379.511 177.078 371.111C163.611 357.511 148.678 346.977 123.744 333.644C96.4109 318.977 81.4776 302.977 79.4776 286.177C78.4109 277.377 74.5443 273.111 67.7443 273.111C64.4109 273.111 61.8776 274.177 59.7443 276.444ZM94.4109 343.244C96.6776 344.844 105.744 350.044 114.678 354.844C137.078 366.844 150.011 375.911 161.211 386.977C176.411 402.311 181.744 415.911 181.744 440.044V451.911L171.611 443.244C166.011 438.444 155.878 430.711 149.211 426.177C125.478 409.911 106.544 388.311 96.5443 366.044C93.2109 358.577 87.0776 341.111 87.0776 338.844C87.0776 338.177 89.3443 339.377 94.4109 343.244Z" fill="black"/>
<path d="M423.877 276.177C421.877 278.177 420.544 281.511 420.011 286.177C418.011 302.577 402.944 319.111 376.944 333.111C337.611 354.177 314.944 373.511 304.544 394.444C296.011 411.911 295.077 418.444 295.077 464.177V504.044L298.944 507.911C303.077 512.044 306.277 512.711 311.477 510.311C315.211 508.577 317.077 505.511 319.077 497.111C323.877 478.177 334.677 465.244 361.211 446.577C382.011 431.911 405.344 408.577 414.144 393.511C427.477 371.111 437.077 341.777 441.077 310.844C444.144 287.911 443.744 280.444 439.744 276.444C435.477 272.044 428.144 271.911 423.877 276.177ZM409.744 348.177C399.877 380.177 380.677 405.111 349.211 426.977C341.877 432.044 331.877 439.777 326.811 444.044L317.744 451.911V440.044C317.744 415.511 322.811 402.311 338.277 387.111C349.611 375.777 362.144 367.111 384.411 355.111C393.611 350.177 403.477 344.444 406.277 342.311C409.211 340.177 411.744 338.711 412.011 338.977C412.277 339.111 411.211 343.377 409.744 348.177Z" fill="black"/>
<path d="M94.0106 526.844C90.6772 530.311 90.1439 537.777 92.8106 541.244C93.7439 542.444 96.8106 544.711 99.7439 546.177C109.477 551.377 118.011 561.111 134.011 584.844C154.411 615.511 163.744 625.777 177.077 632.844C183.211 636.177 184.944 636.444 198.411 636.311C213.477 636.177 229.477 633.511 242.544 629.111C249.611 626.711 249.877 626.711 256.944 629.111C270.011 633.511 286.011 636.177 301.077 636.311C314.011 636.444 316.411 636.044 321.744 633.244C335.077 626.311 345.744 614.444 365.344 585.111C370.544 577.377 377.744 567.377 381.344 562.711C387.744 554.844 396.944 546.444 399.211 546.444C399.744 546.444 402.011 544.844 404.277 542.977C412.277 536.311 408.144 523.777 398.011 523.777C385.344 523.777 370.411 537.511 349.211 568.577C329.611 597.111 321.477 606.977 314.411 611.244C308.677 614.577 307.744 614.711 296.677 613.777C290.277 613.244 280.011 611.511 273.744 609.911C263.611 607.377 262.411 606.711 262.011 603.777C261.744 601.111 262.544 600.044 266.011 598.577C273.477 595.244 283.477 583.911 289.477 571.911C297.477 555.911 297.077 552.311 286.011 545.244C266.811 532.977 241.477 531.377 220.944 541.244C210.011 546.444 204.411 551.644 204.411 556.844C204.411 567.777 222.544 593.777 233.477 598.577C236.944 600.044 237.744 601.111 237.477 603.777C237.077 606.711 235.877 607.377 225.744 609.911C219.477 611.511 209.211 613.244 202.811 613.777C191.744 614.711 190.811 614.577 185.077 611.244C178.011 606.977 169.877 597.111 150.277 568.577C142.277 556.844 132.011 543.511 127.611 538.977C113.877 525.111 100.277 520.177 94.0106 526.844ZM265.611 560.044L269.877 561.777L265.611 568.311C255.611 583.377 243.877 583.377 234.011 568.444C231.611 564.844 230.011 561.644 230.411 561.377C230.811 560.977 233.877 559.911 237.344 558.977C244.677 556.844 259.211 557.377 265.611 560.044Z" fill="black"/>
</svg>
