<svg width="683" height="682" viewBox="0 0 683 682" fill="none" xmlns="http://www.w3.org/2000/svg">
<path d="M308.72 0.939348C229.52 9.60602 161.253 41.0727 105.253 94.5394C23.6528 172.406 -14.2138 286.673 4.85285 398.006C8.71951 420.939 14.8528 443.473 18.3195 447.073C23.1195 452.273 31.5195 451.073 34.7195 444.673C36.5862 441.206 36.3195 439.473 32.1862 423.206C20.4528 378.539 18.1862 338.939 24.7195 294.139C39.3862 193.206 102.32 104.806 192.986 57.4727C305.653 -1.32732 440.853 11.606 540.586 90.5394C546.72 95.4727 552.853 99.4727 554.186 99.4727C558.586 99.4727 563.253 96.5394 564.853 92.6727C567.386 86.406 564.586 82.406 550.32 71.206C503.786 34.9394 447.786 11.206 388.72 2.80602C370.586 0.139348 324.853 -0.927318 308.72 0.939348Z" fill="black"/>
<path d="M320.719 44.0061C287.253 51.2061 257.119 74.2727 244.586 102.673C242.319 107.739 241.253 108.673 232.986 112.006C190.186 128.673 149.919 161.606 123.386 201.206C113.653 215.739 103.119 237.606 97.3861 254.539C92.0527 270.406 87.5194 289.873 87.3861 296.406C87.3861 298.806 85.2527 304.539 82.7194 309.073C80.3194 313.739 77.2527 321.073 76.0527 325.473C66.8527 361.206 91.6527 398.139 128.853 404.006L138.053 405.339V476.539V547.606L141.386 550.806C145.653 555.206 151.786 555.206 156.053 550.806L159.386 547.606V502.939V458.273L166.719 465.339C176.186 474.406 187.919 481.339 201.386 485.739C211.919 489.339 212.586 489.339 254.853 489.873L297.786 490.273L298.319 506.539C298.853 519.739 299.519 524.006 301.786 528.806C306.319 538.273 311.786 543.873 320.986 548.939C328.719 553.073 330.319 553.473 340.719 553.473C351.119 553.473 352.719 553.073 360.453 548.939C369.786 543.873 373.919 539.606 378.986 529.606C382.053 523.606 382.586 520.806 383.119 506.539L383.653 490.273L426.586 489.873C468.853 489.339 469.519 489.339 480.053 485.739C493.519 481.339 505.253 474.406 514.719 465.339L522.053 458.273V502.939V547.606L525.386 550.806C529.653 555.206 535.786 555.206 540.053 550.806L543.386 547.606V476.539V405.339L552.586 404.006C589.786 398.139 614.586 361.206 605.386 325.473C604.186 321.073 601.119 313.739 598.719 309.073C596.186 304.539 594.053 299.073 594.053 297.073C594.053 290.673 588.853 269.073 584.053 254.406C576.319 231.339 561.386 203.739 546.319 184.806C538.719 175.339 518.186 154.539 509.386 147.473C491.519 133.339 464.853 118.006 445.653 110.806C440.453 108.806 438.986 107.473 436.853 102.673C424.986 75.8727 397.786 53.8727 366.053 45.3394C355.519 42.4061 331.253 41.7394 320.719 44.0061ZM358.719 65.4727C373.653 68.5394 388.853 76.8061 400.186 88.1394C405.653 93.4727 410.053 98.4061 410.053 99.0727C410.053 99.8727 406.053 99.7394 399.786 98.6727C394.053 97.7394 382.453 96.5394 373.919 96.0061C358.319 95.0727 358.319 95.0727 354.853 98.5394C350.453 102.939 350.186 109.073 354.453 113.339C357.119 116.006 359.253 116.406 373.253 117.206C412.053 119.473 448.319 131.873 482.053 154.273C509.253 172.273 539.786 207.739 554.053 237.606C559.519 249.073 570.719 280.539 569.653 281.606C569.386 281.873 566.586 281.206 563.386 280.139C560.186 279.073 554.453 277.739 550.453 277.339C545.653 276.673 543.386 275.873 543.386 274.539C543.386 273.473 541.919 271.206 540.053 269.473C537.119 266.406 535.919 266.139 522.986 266.139C472.853 266.139 408.053 258.406 365.519 247.473C356.853 245.339 348.586 243.473 346.986 243.473C342.586 243.473 338.053 248.673 338.053 253.606C338.053 262.539 343.253 264.939 380.719 272.806C416.186 280.273 456.853 285.073 500.453 286.939L522.053 287.873V347.339C522.053 413.073 521.653 416.939 513.653 432.006C508.319 442.406 495.653 455.073 485.253 460.406C469.119 468.939 472.186 468.806 341.119 468.806C259.919 468.806 219.919 468.406 215.119 467.339C195.919 463.339 176.719 449.073 167.786 432.006C159.786 416.806 159.386 413.473 159.386 342.673C159.386 283.073 159.519 277.873 162.053 268.273C168.319 243.473 186.853 223.739 217.253 209.339L230.053 203.339L237.786 210.139C246.853 218.406 263.653 229.873 268.186 230.939C272.053 231.873 277.519 228.673 279.653 224.139C282.319 218.273 280.053 214.673 267.653 206.273C255.786 198.006 246.453 189.739 241.119 182.939L238.053 179.206L228.453 182.139C208.453 188.139 185.786 200.673 171.653 213.473C156.586 227.073 145.519 245.473 140.586 265.206L137.786 276.406L130.853 277.339C126.986 277.739 121.253 279.073 118.053 280.139C114.853 281.206 112.053 281.873 111.786 281.606C110.719 280.539 121.919 249.073 127.386 237.606C141.653 207.739 172.186 172.273 199.386 154.273C233.119 131.873 269.386 119.473 308.186 117.206C322.186 116.406 324.319 116.006 326.986 113.339C331.253 109.073 330.986 102.939 326.586 98.5394L323.119 95.0727L306.853 96.0061C298.053 96.5394 286.319 97.7394 281.119 98.6727C274.853 99.7394 271.386 99.8727 271.386 99.0727C271.386 98.2727 275.919 93.3394 281.386 88.0061C302.319 67.7394 330.319 59.4727 358.719 65.4727ZM138.053 340.939V383.739L131.786 382.806C123.386 381.606 110.853 374.806 105.919 368.939C98.4527 359.873 96.1861 353.206 96.1861 340.806C96.1861 331.473 96.7194 328.273 99.3861 322.806C106.053 309.073 120.719 298.939 135.119 298.273L138.053 298.139V340.939ZM562.186 302.806C571.519 307.606 575.786 311.873 580.853 321.073C584.986 328.806 585.386 330.406 585.386 340.806C585.386 351.206 584.986 352.806 580.853 360.539C578.319 365.206 574.453 370.406 572.319 372.273C566.319 377.339 556.719 381.739 549.653 382.806L543.386 383.739V340.806V297.873L549.653 298.806C553.119 299.339 558.719 301.073 562.186 302.806ZM361.786 504.673C361.386 520.406 360.186 523.473 352.186 529.339C346.986 533.206 334.453 533.206 329.253 529.339C321.253 523.473 320.053 520.406 319.653 504.673L319.119 490.139H340.719H362.319L361.786 504.673Z" fill="black"/>
<path d="M302.319 230.939C293.519 237.073 297.519 250.006 308.186 250.139C317.119 250.139 321.386 238.673 314.719 232.139C310.986 228.273 306.586 227.873 302.319 230.939Z" fill="black"/>
<path d="M222.72 277.606C221.253 277.873 216.72 278.806 212.72 279.606C201.653 281.873 184.986 288.673 182.72 291.873C179.786 296.139 180.186 301.739 184.053 305.473C188.053 309.606 191.786 309.606 201.12 305.606C212.186 300.673 226.72 298.139 244.053 298.139C258.72 298.139 259.653 298.006 262.72 294.806C264.853 292.806 266.053 290.006 266.053 287.473C266.053 284.939 264.853 282.139 262.72 280.139C259.653 276.939 258.853 276.806 242.453 276.939C233.12 277.073 224.186 277.339 222.72 277.606Z" fill="black"/>
<path d="M212.72 321.206C206.186 323.339 194.986 334.806 192.986 341.606C189.253 354.139 191.92 364.139 201.386 373.473C214.853 387.073 231.92 387.073 245.386 373.473C258.453 360.539 258.853 343.873 246.453 330.139C237.786 320.539 225.386 317.206 212.72 321.206ZM230.72 344.139C237.386 350.673 232.72 362.139 223.386 362.139C220.853 362.139 218.053 360.939 216.053 358.806C213.92 356.806 212.72 354.006 212.72 351.473C212.72 348.939 213.92 346.139 216.053 344.139C218.053 342.006 220.853 340.806 223.386 340.806C225.92 340.806 228.72 342.006 230.72 344.139Z" fill="black"/>
<path d="M447.386 321.206C440.853 323.339 429.653 334.806 427.653 341.606C423.92 354.139 426.586 364.139 436.053 373.473C449.52 387.073 466.586 387.073 480.053 373.473C493.12 360.539 493.52 343.873 481.12 330.139C472.453 320.539 460.053 317.206 447.386 321.206ZM465.386 344.139C472.053 350.673 467.386 362.139 458.053 362.139C452.586 362.139 447.386 356.939 447.386 351.473C447.386 346.006 452.586 340.806 458.053 340.806C460.586 340.806 463.386 342.006 465.386 344.139Z" fill="black"/>
<path d="M301.386 388.139C294.986 394.406 298.453 402.273 310.186 408.139C328.586 417.606 352.853 417.606 371.253 408.139C382.986 402.273 386.453 394.406 380.053 388.139C375.786 383.739 372.186 384.006 361.253 389.073C353.12 392.939 350.72 393.473 340.72 393.473C330.72 393.473 328.32 392.939 320.186 389.073C309.253 384.006 305.653 383.739 301.386 388.139Z" fill="black"/>
<path d="M581.386 109.073C577.386 111.339 575.52 114.406 575.386 118.539C575.386 123.606 580.72 128.806 586.053 128.806C591.253 128.806 596.72 123.606 596.72 118.806C596.72 114.673 590.186 107.473 586.453 107.473C585.12 107.473 582.853 108.273 581.386 109.073Z" fill="black"/>
<path d="M608.053 142.406C599.653 146.939 600.186 151.873 610.853 168.806C628.986 197.473 643.52 231.473 651.386 263.739C658.72 293.739 660.053 305.339 660.053 340.806C660.053 376.273 658.72 387.739 651.386 417.873C640.586 462.273 618.586 506.273 589.12 542.806C568.32 568.673 537.92 595.339 509.12 613.073C499.12 619.339 471.253 634.139 469.653 634.139C469.386 634.139 468.72 625.873 468.32 615.739C467.12 589.206 462.586 573.473 450.186 552.273C443.52 540.939 425.386 520.539 419.12 517.339C411.92 513.606 403.386 518.406 403.386 526.273C403.386 529.473 405.386 532.273 413.786 540.806C425.386 552.273 432.32 562.006 438.053 574.539C444.72 589.206 446.186 597.206 446.986 620.939L447.653 643.073L433.253 647.206C425.253 649.606 417.92 651.473 417.12 651.473C415.786 651.473 415.386 644.673 415.386 622.139V592.673L412.053 589.473C407.786 585.073 401.653 585.073 397.386 589.473L394.053 592.673V624.539V656.406L389.12 657.206C364.32 661.206 326.586 661.473 299.786 658.006L287.386 656.406V624.539V592.673L284.053 589.473C279.786 585.073 273.653 585.073 269.386 589.473L266.053 592.673V622.139V651.739L261.786 650.806C259.386 650.273 252.32 648.273 246.053 646.273L234.72 642.673L234.853 622.006C234.853 606.673 235.52 599.206 237.253 592.139C242.453 572.139 252.453 555.473 268.32 540.006C279.386 529.073 280.72 524.673 274.72 518.806C268.586 512.539 262.986 514.806 249.253 529.073C232.72 546.139 221.386 566.806 215.92 589.873C214.72 594.806 213.386 606.673 212.853 616.406L212.053 634.006L196.053 625.873C148.053 601.606 105.386 563.873 75.5195 519.206C66.4528 505.473 62.0528 503.339 54.8528 508.939C48.8528 513.606 49.9195 519.606 59.3862 533.339C76.9862 559.073 103.92 588.273 128.053 607.473C154.186 628.273 192.586 649.873 223.92 661.473C242.186 668.139 273.92 676.006 294.72 679.073C315.52 682.006 364.053 682.406 382.72 679.739C461.786 668.539 528.72 635.739 582.72 581.473C693.12 470.939 713.92 300.539 633.786 165.073C624.586 149.473 617.12 140.806 613.253 140.806C611.92 140.806 609.52 141.606 608.053 142.406Z" fill="black"/>
<path d="M33.3864 472.139C29.5197 475.873 29.253 479.339 32.053 484.673C35.253 491.073 42.853 492.139 48.053 486.806C54.7197 480.273 50.053 468.806 40.7197 468.806C38.1864 468.806 35.3864 470.006 33.3864 472.139Z" fill="black"/>
</svg>
