<svg width="683" height="682" viewBox="0 0 683 682" fill="none" xmlns="http://www.w3.org/2000/svg">
<path d="M316.018 0.342384C282.284 3.80905 249.218 10.8757 224.018 20.0757C192.684 31.6757 154.684 53.1424 128.018 74.2091C104.551 93.0091 78.0177 121.409 60.4177 146.876C6.55103 224.742 -12.5156 322.609 8.15103 415.542C37.2177 546.342 142.684 649.409 274.018 675.409C299.351 680.342 311.618 681.542 341.351 681.542C380.818 681.542 409.218 677.276 444.018 666.076C586.684 620.476 682.018 490.342 682.018 340.876C682.018 249.142 646.951 164.342 582.018 99.5424C529.084 46.4757 463.884 13.9424 388.418 2.74238C375.218 0.875717 327.084 -0.724283 316.018 0.342384ZM387.351 24.2091C480.551 38.3424 561.884 91.5424 612.284 171.276C636.551 209.542 654.284 260.876 659.218 306.476C661.351 325.276 660.951 360.342 658.684 379.542C648.018 465.542 602.284 544.609 533.484 596.076C516.551 608.742 495.484 621.809 480.018 629.009L469.351 634.076L468.551 617.809C467.351 592.876 464.018 579.542 454.684 560.876C443.884 539.276 426.551 520.609 406.284 508.476C390.151 498.876 385.084 500.209 383.218 514.076C381.618 525.276 378.151 532.742 370.684 540.742C362.018 549.942 353.484 553.542 340.018 553.409C330.418 553.409 328.418 553.009 320.951 549.009C307.751 541.809 300.018 530.342 298.418 515.276C297.484 506.076 294.684 502.209 289.218 502.209C282.951 502.209 264.951 514.209 251.884 526.876C226.284 551.942 214.684 578.609 213.084 615.809L212.284 634.076L198.951 627.409C169.351 612.476 143.351 593.942 118.818 570.209C66.2844 519.276 33.751 454.876 23.8844 382.209C20.8177 359.942 20.8177 320.476 23.8844 298.876C33.6177 229.542 63.2177 168.742 111.351 119.009C165.084 63.5424 232.151 31.0091 310.684 22.2091C326.018 20.4757 370.951 21.6757 387.351 24.2091ZM279.484 540.742C282.151 543.409 283.351 545.942 283.351 548.876C283.351 554.609 277.084 560.876 271.351 560.876C265.618 560.876 259.351 554.609 259.351 548.876C259.351 545.942 260.551 543.409 263.218 540.742C268.551 535.542 274.151 535.542 279.484 540.742ZM284.018 589.542C287.351 592.742 287.351 592.876 287.351 619.942C287.351 644.742 287.084 647.542 284.818 650.342C281.218 654.742 272.151 654.742 268.551 650.342C266.284 647.542 266.018 644.742 266.018 619.942C266.018 592.876 266.018 592.742 269.351 589.542C271.351 587.409 274.151 586.209 276.684 586.209C279.218 586.209 282.018 587.409 284.018 589.542ZM412.018 589.542C415.351 592.742 415.351 592.876 415.351 620.209C415.351 647.542 415.351 647.676 412.018 650.876C407.751 655.276 401.618 655.276 397.351 650.876C394.018 647.676 394.018 647.542 394.018 620.209C394.018 592.876 394.018 592.742 397.351 589.542C399.351 587.409 402.151 586.209 404.684 586.209C407.218 586.209 410.018 587.409 412.018 589.542Z" fill="black"/>
<path d="M321.351 44.0758C287.751 50.7425 257.217 74.0758 244.417 103.142C242.284 108.076 240.684 109.542 236.284 111.276C185.751 130.876 139.084 173.542 114.818 222.076C104.018 243.809 97.3508 263.542 93.6175 285.809C91.7508 296.209 90.6842 299.009 86.5508 304.476C75.2175 319.276 71.3508 338.209 76.0175 356.209C82.5508 381.142 103.351 399.942 128.684 403.942L138.018 405.409V476.476V547.676L141.351 550.876C145.618 555.276 151.751 555.276 156.017 550.876L159.351 547.676V503.009V458.342L166.684 465.409C176.151 474.342 187.884 481.276 201.351 485.942L212.017 489.542H340.684H469.351L480.017 485.942C493.484 481.276 505.217 474.342 514.684 465.409L522.017 458.342V503.009V547.676L525.351 550.876C529.617 555.276 535.751 555.276 540.017 550.876L543.351 547.676V476.476V405.409L552.684 403.942C584.017 399.009 607.351 371.676 607.351 339.676C607.351 328.076 601.884 313.676 593.884 303.276C590.951 299.676 589.484 295.676 588.017 286.609C577.351 224.476 540.817 169.009 487.217 133.142C477.484 126.609 452.284 113.542 443.751 110.476C440.684 109.542 438.817 107.409 436.951 103.142C424.817 75.8091 398.017 53.9425 366.017 45.4091C355.484 42.6091 332.551 41.9425 321.351 44.0758ZM388.817 118.742C468.951 129.409 535.884 185.542 560.551 262.609C564.417 274.876 564.684 276.742 564.684 297.009C564.684 317.809 564.551 318.342 561.351 321.542C557.484 325.542 551.484 325.809 547.217 322.342C544.151 319.942 544.017 319.009 543.351 297.009C542.684 274.342 542.684 274.209 539.084 270.609C535.351 267.009 535.351 267.009 510.417 265.942C451.484 263.676 408.684 258.209 366.017 247.542C315.884 234.876 271.084 213.142 247.084 189.676C236.684 179.542 235.751 179.409 221.751 184.342C186.151 197.142 160.684 218.476 147.351 246.476C140.151 261.676 138.018 273.809 138.018 298.209C138.018 317.809 137.884 318.476 134.684 321.542C132.684 323.676 129.884 324.876 127.351 324.876C124.818 324.876 122.018 323.676 120.018 321.542C116.818 318.342 116.684 317.809 116.684 297.009C116.684 276.742 116.951 274.876 120.818 262.609C146.018 183.542 216.151 126.742 299.351 117.809C312.684 116.342 375.751 117.009 388.817 118.742ZM233.217 321.142C244.684 324.609 255.351 339.276 255.351 351.542C255.351 368.076 239.884 383.542 223.351 383.542C206.817 383.542 191.351 368.076 191.351 351.542C191.351 343.142 194.417 336.342 201.351 329.542C210.684 320.076 220.684 317.542 233.217 321.142ZM467.884 321.142C479.351 324.609 490.017 339.276 490.017 351.542C490.017 368.076 474.551 383.542 458.017 383.542C441.484 383.542 426.017 368.076 426.017 351.542C426.017 343.142 429.084 336.342 436.017 329.542C445.351 320.076 455.351 317.542 467.884 321.142ZM134.684 349.542C136.818 351.542 138.018 354.342 138.018 356.876C138.018 359.409 136.818 362.209 134.684 364.209C132.684 366.342 129.884 367.542 127.351 367.542C124.818 367.542 122.018 366.342 120.018 364.209C117.884 362.209 116.684 359.409 116.684 356.876C116.684 354.342 117.884 351.542 120.018 349.542C122.018 347.409 124.818 346.209 127.351 346.209C129.884 346.209 132.684 347.409 134.684 349.542ZM561.351 349.542C568.017 356.076 563.351 367.542 554.017 367.542C548.551 367.542 543.351 362.342 543.351 356.876C543.351 351.409 548.551 346.209 554.017 346.209C556.551 346.209 559.351 347.409 561.351 349.542ZM320.151 389.142C328.284 393.009 330.684 393.542 340.684 393.542C350.684 393.542 353.084 393.009 361.217 389.142C372.151 384.076 375.751 383.809 380.017 388.209C386.417 394.476 382.951 402.342 371.217 408.209C352.817 417.676 328.551 417.676 310.151 408.209C298.417 402.342 294.951 394.476 301.351 388.209C305.617 383.809 309.217 384.076 320.151 389.142ZM197.217 399.409C200.684 403.009 201.351 404.609 201.351 410.209C201.351 415.942 200.684 417.409 196.951 421.142C193.217 424.876 191.751 425.542 186.017 425.542C180.284 425.542 178.817 424.876 175.084 421.142C171.351 417.409 170.684 415.942 170.684 410.342C170.684 403.409 174.017 398.076 180.017 395.409C184.951 393.276 192.817 395.009 197.217 399.409ZM506.551 399.409C510.017 403.009 510.684 404.609 510.684 410.209C510.684 415.942 510.017 417.409 506.284 421.142C502.551 424.876 501.084 425.542 495.351 425.542C489.617 425.542 488.151 424.876 484.417 421.142C480.684 417.409 480.017 415.942 480.017 410.342C480.017 403.409 483.351 398.076 489.351 395.409C494.284 393.276 502.151 395.009 506.551 399.409Z" fill="black"/>
<path d="M298.018 129.276C291.485 131.409 280.285 142.876 278.285 149.676C274.551 162.209 277.218 172.209 286.685 181.542C300.285 195.276 319.085 195.009 331.751 180.876C343.751 167.542 343.751 151.542 331.751 138.209C323.085 128.609 310.685 125.276 298.018 129.276Z" fill="black"/>
<path d="M361.351 182.076C355.351 184.742 352.018 190.076 352.018 197.009C352.018 202.609 352.684 204.076 356.418 207.809C360.151 211.542 361.618 212.209 367.351 212.209C373.084 212.209 374.551 211.542 378.284 207.809C382.018 204.076 382.684 202.609 382.684 196.876C382.684 191.276 382.018 189.676 378.551 186.076C374.151 181.676 366.284 179.942 361.351 182.076Z" fill="black"/>
<path d="M205.351 333.542C198.684 340.076 203.351 351.542 212.684 351.542C215.218 351.542 218.018 350.342 220.018 348.209C226.684 341.676 222.018 330.209 212.684 330.209C210.151 330.209 207.351 331.409 205.351 333.542Z" fill="black"/>
<path d="M440.017 333.542C433.351 340.076 438.017 351.542 447.351 351.542C452.817 351.542 458.017 346.342 458.017 340.876C458.017 338.342 456.817 335.542 454.684 333.542C452.684 331.409 449.884 330.209 447.351 330.209C444.817 330.209 442.017 331.409 440.017 333.542Z" fill="black"/>
</svg>
