<svg width="385" height="385" viewBox="0 0 385 385" fill="none" xmlns="http://www.w3.org/2000/svg">
<path d="M351.162 227.09H329.137C335.672 208.9 339.086 189.507 339.086 169.565C339.086 75.857 263.266 0 169.543 0C75.8194 0 0 75.842 0 169.565C0 207.201 12.129 242.866 34.5522 272.207H12.8584C6.63223 272.207 1.5791 277.26 1.5791 283.486C1.5791 289.712 6.60967 294.743 12.8208 294.766V362.449C6.60967 362.471 1.5791 367.51 1.5791 373.728C1.5791 379.947 6.63223 385.008 12.8584 385.008H351.162C369.818 385.008 385 369.826 385 351.17V260.935C385 242.279 369.818 227.097 351.162 227.097V227.09ZM351.162 249.648C357.381 249.648 362.441 254.709 362.441 260.928C362.441 267.146 357.381 272.207 351.162 272.207H304.533C309.978 265.086 314.843 257.544 319.084 249.648H351.155H351.162ZM103.018 294.766V362.441H35.3794V294.766H103.018ZM125.576 294.766H192.891V362.441H125.576V294.766ZM146.992 248.107C146.992 235.67 157.113 225.548 169.543 225.548C181.973 225.548 192.094 235.67 192.094 248.107C192.094 260.544 181.973 270.666 169.543 270.666C157.113 270.666 146.992 260.544 146.992 248.107ZM215.45 294.766H283.336V362.441H215.442V294.766H215.45ZM22.5586 169.565C22.5586 88.5049 88.4974 22.5586 169.543 22.5586C250.588 22.5586 316.527 88.5049 316.527 169.565C316.527 208.291 301.721 244.595 274.764 272.207H207.644C226.661 242.242 204.952 202.99 169.535 202.99C134.118 202.99 112.447 242.294 131.426 272.207H64.3145C37.357 244.595 22.5511 208.291 22.5511 169.565H22.5586ZM351.162 362.441H305.895V294.766C354.899 294.766 355.245 295.375 362.441 292.826V351.162C362.441 357.381 357.381 362.441 351.162 362.441Z" fill="black"/>
<path d="M169.543 136.141C194.418 136.141 214.653 115.898 214.653 91.0239C214.653 66.1493 194.418 45.9067 169.543 45.9067C144.668 45.9067 124.433 66.1493 124.433 91.0239C124.433 115.898 144.668 136.141 169.543 136.141ZM169.543 68.4653C181.98 68.4653 192.094 78.5866 192.094 91.0239C192.094 103.461 181.973 113.582 169.543 113.582C157.113 113.582 146.992 103.461 146.992 91.0239C146.992 78.5866 157.113 68.4653 169.543 68.4653ZM136.119 169.565C136.119 144.691 115.876 124.456 91.0015 124.456C66.1269 124.456 45.8843 144.691 45.8843 169.565C45.8843 194.44 66.1269 214.675 91.0015 214.675C115.876 214.675 136.119 194.44 136.119 169.565ZM91.0015 192.116C78.5642 192.116 68.4429 181.995 68.4429 169.565C68.4429 157.136 78.5642 147.014 91.0015 147.014C103.439 147.014 113.56 157.136 113.56 169.565C113.56 181.995 103.439 192.116 91.0015 192.116ZM248.084 214.675C272.959 214.675 293.202 194.44 293.202 169.565C293.202 144.691 272.959 124.456 248.084 124.456C223.21 124.456 202.967 144.691 202.967 169.565C202.967 194.44 223.21 214.675 248.084 214.675ZM248.084 147.007C260.522 147.007 270.643 157.128 270.643 169.558C270.643 181.988 260.522 192.109 248.084 192.109C235.647 192.109 225.526 181.988 225.526 169.558C225.526 157.128 235.647 147.007 248.084 147.007Z" fill="black"/>
</svg>
