<svg width="383" height="383" viewBox="0 0 383 383" fill="none" xmlns="http://www.w3.org/2000/svg">
<path d="M156.718 0.00298437C157.136 0.00298437 157.136 0.00298437 157.56 0C158.485 0 159.407 0 160.33 0.00298437C160.968 0.00298437 161.607 0 162.246 0C163.589 0 164.929 0 166.271 0.00298437C167.993 0.00298437 169.715 0.00298437 171.434 0.00298437C172.757 0 174.079 0 175.398 0.00298437C176.033 0.00298437 176.669 0.00298437 177.302 0C178.188 0 179.077 0 179.964 0.00298437C180.226 0.00298437 180.489 0.00298437 180.761 0C181.775 0.00596875 182.614 0.0179062 183.581 0.340219C184.315 0.387969 185.046 0.423781 185.78 0.450641C187.893 0.555094 189.973 0.784891 192.068 1.08631C192.34 1.12511 192.615 1.16391 192.898 1.20569C194.841 1.49219 194.841 1.49219 195.518 1.83241C196.014 1.88613 196.512 1.92791 197.011 1.96372C198.98 2.12786 200.869 2.45614 202.767 3.0172C204.14 3.3992 205.519 3.63795 206.922 3.8767C208.068 4.08263 209.067 4.37808 210.142 4.81678C210.834 4.97794 211.533 5.12716 212.231 5.26444C213.496 5.51512 214.621 5.82252 215.812 6.30897C216.719 6.54772 217.63 6.75961 218.546 6.9715C219.301 7.17742 219.901 7.43706 220.587 7.80116C221.059 7.94142 221.53 8.08169 222.005 8.21002C224.258 8.83673 226.457 9.49628 228.576 10.4901C229.31 10.8154 230.051 11.081 230.809 11.3436C232.384 11.9077 233.885 12.5911 235.399 13.3043C236.395 13.7669 237.404 14.1877 238.419 14.6085C240.496 15.4919 242.469 16.5305 244.453 17.6018C245.45 18.142 246.462 18.6464 247.482 19.1418C249.085 19.9326 250.601 20.8399 252.126 21.768C253.421 22.5589 254.725 23.2722 256.101 23.9168C256.101 24.1138 256.101 24.3107 256.101 24.5137C256.265 24.5435 256.429 24.5733 256.6 24.6032C257.465 24.8628 258.104 25.2836 258.862 25.782C259.888 26.4535 260.921 27.1101 261.977 27.7398C262.467 28.0621 262.467 28.0621 262.965 28.3933C262.965 28.5903 262.965 28.7873 262.965 28.9902C263.12 29.0111 263.276 29.035 263.437 29.0559C264.469 29.3871 265.293 29.996 266.173 30.6137C266.352 30.7331 266.532 30.8555 266.717 30.9808C267.17 31.2971 267.606 31.6344 268.039 31.9746C268.039 32.1716 268.039 32.3685 268.039 32.5715C268.271 32.664 268.507 32.7565 268.746 32.852C269.531 33.1683 269.531 33.1683 270.128 33.4668C270.128 33.6638 270.128 33.8607 270.128 34.0637C270.405 34.2009 270.405 34.2009 270.686 34.3442C271.098 34.5471 271.507 34.753 271.918 34.959C271.918 35.1559 271.918 35.3529 271.918 35.5558C272.312 35.6543 272.706 35.7528 273.112 35.8543C273.112 36.0513 273.112 36.2482 273.112 36.4512C273.39 36.5884 273.39 36.5884 273.67 36.7317C274.082 36.9346 274.491 37.1405 274.903 37.3465C274.903 37.5434 274.903 37.7404 274.903 37.9433C275.073 38.0239 275.243 38.1045 275.419 38.1851C276.12 38.5522 276.729 38.964 277.365 39.4355C277.681 39.6653 277.681 39.6653 278.003 39.9011C278.162 40.0443 278.32 40.1846 278.484 40.3308C278.484 40.5278 278.484 40.7248 278.484 40.9277C278.723 41.0292 278.723 41.0292 278.967 41.1336C280.23 41.829 281.424 42.8138 282.364 43.9121C282.364 44.1091 282.364 44.306 282.364 44.509C282.537 44.5836 282.71 44.6582 282.889 44.7388C283.635 45.1476 284.11 45.6102 284.694 46.225C285.438 46.989 286.184 47.7112 287.007 48.3887C287.998 49.2153 288.819 50.1435 289.652 51.1253C290.147 51.7162 290.147 51.7162 290.851 52.3788C291.317 52.8652 291.317 52.8652 291.317 53.4621C291.514 53.4621 291.711 53.4621 291.914 53.4621C292.293 53.8262 292.293 53.8262 292.752 54.3753C292.937 54.5932 293.119 54.808 293.31 55.0319C293.537 55.3005 293.767 55.572 294.003 55.8496C294.307 56.1988 294.612 56.5509 294.919 56.9001C300.27 63.021 300.27 63.021 300.27 63.9074C300.467 63.9074 300.664 63.9074 300.867 63.9074C301.297 64.4237 301.705 64.9639 302.096 65.51C302.314 65.8085 302.529 66.1069 302.753 66.4143C303.254 67.1902 303.254 67.1902 303.254 67.7871C303.451 67.7871 303.648 67.7871 303.851 67.7871C304.746 69.0943 304.746 69.0943 304.746 69.8762C304.943 69.8762 305.14 69.8762 305.343 69.8762C305.343 70.1716 305.343 70.4671 305.343 70.7715C305.54 70.7715 305.737 70.7715 305.94 70.7715C306.391 71.4042 306.391 71.4042 306.91 72.2637C307.561 73.3201 308.22 74.3408 308.981 75.3226C309.769 76.3463 310.384 77.3998 311.014 78.5308C311.235 78.8502 311.455 79.1695 311.685 79.5008C312.207 80.3215 312.207 80.3215 312.207 81.2168C312.404 81.2168 312.601 81.2168 312.804 81.2168C312.927 81.4675 313.049 81.7211 313.174 81.9778C313.336 82.3061 313.497 82.6344 313.661 82.9686C313.9 83.4581 313.9 83.4581 314.144 83.9564C314.547 84.81 314.547 84.81 315.192 85.3949C315.192 85.6904 315.192 85.9858 315.192 86.2902C315.389 86.2902 315.586 86.2902 315.789 86.2902C316.371 87.4571 316.953 88.621 317.538 89.7879C317.642 89.9968 317.746 90.2057 317.854 90.4236C318.072 90.8593 318.29 91.295 318.504 91.7307C318.612 91.9426 318.716 92.1545 318.824 92.3724C318.919 92.5634 319.012 92.7544 319.11 92.9514C319.382 93.4975 319.382 93.4975 319.818 94.16C320.223 94.8733 320.51 95.5448 320.805 96.3058C321.262 97.4816 321.781 98.5978 322.354 99.7199C323.148 101.284 323.823 102.856 324.443 104.495C324.691 105.143 324.939 105.787 325.189 106.435C325.315 106.763 325.44 107.091 325.568 107.429C325.894 108.264 326.228 109.094 326.568 109.923C327.058 111.132 327.434 112.35 327.792 113.603C328.025 114.343 328.302 115.045 328.604 115.761C329.23 117.289 329.672 118.85 330.114 120.44C330.391 121.437 330.696 122.422 331.009 123.407C331.698 125.636 332.256 127.892 332.8 130.161C332.925 130.68 332.925 130.68 333.053 131.211C333.462 132.948 333.826 134.685 334.131 136.446C334.322 137.481 334.539 138.511 334.757 139.543C335.098 141.221 335.301 142.856 335.414 144.563C335.48 145.324 335.602 146.034 335.766 146.781C336.623 150.75 336.814 154.859 337.014 158.903C337.028 159.148 337.04 159.389 337.052 159.64C337.219 162.914 337.33 166.182 337.333 169.462C337.333 169.951 337.333 169.951 337.333 170.453C337.321 172.169 337.222 173.855 337.052 175.565C336.882 177.529 336.855 179.504 336.796 181.474C336.781 181.972 336.781 181.972 336.763 182.48C336.754 182.778 336.745 183.074 336.736 183.381C336.685 184.091 336.563 184.688 336.381 185.371C336.321 185.813 336.273 186.255 336.232 186.697C336.208 186.944 336.181 187.192 336.157 187.449C336.106 187.968 336.056 188.487 336.008 189.006C335.984 189.254 335.957 189.502 335.933 189.756C335.912 189.982 335.888 190.206 335.868 190.439C335.784 191.042 335.784 191.042 335.486 191.937C335.438 192.453 335.402 192.97 335.372 193.486C335.121 196.727 334.423 199.887 333.602 203.027C333.319 204.188 333.119 205.358 332.928 206.537C332.8 207.157 332.8 207.157 332.501 207.456C332.43 208.044 332.361 208.629 332.295 209.217C332.17 210.064 331.886 210.825 331.606 211.634C331.466 212.204 331.328 212.777 331.194 213.35C330.845 214.785 330.391 216.114 329.803 217.468C329.439 218.391 329.189 219.334 328.92 220.289C328.624 221.202 328.32 222.109 328.013 223.019C327.947 223.216 327.881 223.41 327.813 223.613C327.714 223.903 327.714 223.903 327.616 224.201C327.443 224.72 327.273 225.246 327.105 225.768C326.616 227.293 326.088 228.711 325.336 230.125C324.992 230.829 324.739 231.543 324.479 232.283C323.518 235.005 322.235 237.595 320.913 240.162C320.555 240.896 320.238 241.645 319.919 242.397C319.462 243.435 318.961 244.453 318.457 245.468C318.349 245.686 318.245 245.901 318.137 246.124C317.349 247.709 317.349 247.709 316.684 248.043C316.123 248.073 315.562 248.082 315.001 248.082C314.64 248.082 314.279 248.082 313.909 248.085C313.506 248.085 313.1 248.082 312.697 248.082C312.273 248.082 311.846 248.085 311.42 248.085C310.247 248.088 309.071 248.088 307.898 248.085C306.633 248.085 305.367 248.088 304.102 248.088C301.625 248.091 299.145 248.094 296.665 248.094C294.65 248.094 292.636 248.094 290.621 248.094C284.915 248.097 279.209 248.1 273.503 248.097C273.196 248.097 272.888 248.097 272.569 248.097C272.109 248.097 272.109 248.097 271.638 248.097C266.639 248.097 261.64 248.1 256.644 248.106C251.517 248.109 246.39 248.112 241.263 248.112C238.383 248.112 235.503 248.112 232.623 248.115C230.173 248.118 227.72 248.118 225.267 248.118C224.016 248.115 222.766 248.115 221.512 248.118C220.366 248.121 219.223 248.121 218.077 248.118C217.662 248.118 217.248 248.118 216.833 248.118C216.269 248.121 215.708 248.121 215.147 248.118C214.833 248.118 214.52 248.118 214.198 248.118C213.425 248.043 213.425 248.043 212.529 247.446C212.413 246.677 212.413 246.677 212.407 245.707C212.401 245.354 212.395 244.999 212.389 244.635C212.386 244.068 212.386 244.068 212.38 243.492C212.314 240.517 212.201 237.774 211.336 234.912C211.267 234.676 211.198 234.438 211.13 234.196C210.637 232.599 209.975 231.071 209.321 229.537C208.981 228.723 208.665 227.902 208.351 227.078C207.644 225.314 206.653 223.831 205.57 222.282C205.447 222.109 205.325 221.933 205.2 221.754C204.952 221.402 204.704 221.053 204.454 220.703C203.576 219.459 203.576 219.459 203.576 218.796C203.379 218.796 203.182 218.796 202.979 218.796C202.606 218.37 202.257 217.925 201.917 217.471C199.917 214.809 199.917 214.809 197.309 212.828C197.309 212.631 197.309 212.434 197.309 212.231C197.142 212.153 196.975 212.076 196.802 211.995C196.041 211.595 195.375 211.13 194.68 210.625C193.498 209.79 192.313 209.041 191.042 208.351C191.042 208.154 191.042 207.957 191.042 207.754C190.878 207.721 190.713 207.689 190.546 207.656C189.702 207.414 188.986 207.041 188.207 206.635C185.169 205.101 182.223 203.985 178.916 203.218C177.911 202.979 177.911 202.979 177.015 202.681C169.551 201.138 160.807 201.553 153.737 204.471C153.474 204.576 153.212 204.68 152.94 204.785C148.944 206.399 145.139 208.288 141.737 210.957C141.203 211.336 141.203 211.336 140.606 211.336C140.606 211.533 140.606 211.729 140.606 211.932C140.113 212.437 140.113 212.437 139.469 212.995C139.257 213.18 139.045 213.365 138.827 213.556C138.218 214.021 138.218 214.021 137.323 214.32C137.323 214.517 137.323 214.714 137.323 214.917C136.834 215.421 136.332 215.917 135.831 216.409C135.559 216.734 135.291 217.066 135.028 217.397C134.801 217.662 134.571 217.928 134.339 218.2C134.142 218.2 133.945 218.2 133.742 218.2C133.67 218.409 133.599 218.617 133.527 218.832C132.927 220.178 131.99 221.244 131.083 222.396C130.522 223.184 130.169 223.855 129.862 224.765C129.665 224.765 129.468 224.765 129.265 224.765C129.232 224.92 129.2 225.079 129.167 225.24C128.904 226.174 128.519 227.027 128.128 227.917C127.337 229.728 126.615 231.549 125.982 233.42C125.899 233.662 125.815 233.9 125.732 234.148C124.574 237.732 124.401 241.305 124.32 245.044C124.311 245.345 124.302 245.647 124.293 245.957C124.287 246.229 124.281 246.503 124.278 246.784C124.192 247.446 124.192 247.446 123.595 248.043C122.858 248.121 122.858 248.121 121.909 248.124C121.548 248.124 121.187 248.127 120.813 248.13C120.411 248.13 120.005 248.13 119.602 248.13C119.175 248.13 118.748 248.133 118.322 248.136C117.146 248.142 115.97 248.142 114.791 248.142C113.526 248.145 112.257 248.151 110.989 248.154C107.927 248.166 104.865 248.169 101.803 248.175C100.362 248.175 98.9201 248.178 97.4816 248.181C92.6917 248.19 87.9048 248.199 83.1148 248.202C82.8104 248.202 82.5031 248.202 82.1867 248.202C81.7241 248.202 81.7241 248.202 81.2556 248.202C80.6319 248.202 80.0081 248.202 79.3874 248.202C79.077 248.204 78.7696 248.205 78.4503 248.205C73.4425 248.207 68.4347 248.219 63.4269 248.237C58.2878 248.252 53.1517 248.261 48.0126 248.264C45.1267 248.264 42.2408 248.27 39.355 248.282C36.8958 248.294 34.4397 248.297 31.9836 248.291C30.7271 248.288 29.4737 248.291 28.2202 248.3C27.0713 248.309 25.9223 248.309 24.7763 248.3C24.3615 248.3 23.9436 248.3 23.5288 248.306C20.4221 248.351 20.4221 248.351 19.4701 247.593C19.0761 247.056 18.8016 246.563 18.5449 245.954C18.3211 245.528 18.3211 245.528 18.0913 245.092C17.9689 244.817 17.8495 244.54 17.7212 244.256C17.5839 243.949 17.4467 243.641 17.3034 243.325C17.0975 242.854 17.0975 242.854 16.8856 242.373C15.8321 239.953 15.8321 239.953 14.5996 237.625C14.1131 236.78 13.7789 236.001 13.4715 235.079C13.1432 234.1 12.7672 233.193 12.2956 232.28C11.6749 231.062 11.2183 229.824 10.7855 228.532C10.1379 226.657 9.4545 224.807 8.69647 222.975C8.213 221.796 7.84891 220.62 7.50272 219.393C7.35649 218.946 7.20429 218.498 7.05507 218.05C6.4373 216.212 5.94189 214.374 5.55094 212.476C5.46141 211.929 5.46141 211.929 5.11522 211.634C5.01077 211.246 4.91825 210.852 4.83469 210.458C4.7571 210.1 4.75709 210.1 4.6795 209.733C4.46164 208.673 4.25871 207.614 4.05875 206.552C3.97519 205.967 3.97519 205.967 3.62304 205.665C3.52455 205.2 3.438 204.734 3.36041 204.266C3.13061 202.926 2.85605 201.601 2.5606 200.275C2.24127 198.813 2.02639 197.39 1.90403 195.9C1.83241 195.226 1.70707 194.593 1.55188 193.934C0.880394 191.066 0.567025 188.204 0.441682 185.267C0.3999 184.339 0.337239 183.572 0.0417856 182.686C0.0119419 181.805 2.9145e-06 180.931 0.00298729 180.05C0.00298729 179.782 0.00298437 179.51 0 179.233C0 178.343 2.9145e-06 177.451 0.00298729 176.559C2.9145e-06 175.938 0 175.32 0 174.702C0 173.404 2.9145e-06 172.106 0.00298729 170.808C0.00298729 169.145 0.00298437 167.48 0 165.815C0 164.535 0 163.257 0 161.98C0 161.365 0 160.753 0 160.139C0 159.282 2.9145e-06 158.423 0.00298729 157.566C0.00298729 157.312 0 157.056 0 156.793C0.00298437 155.799 0.0238794 154.985 0.340223 154.036C0.387973 153.295 0.423784 152.558 0.450644 151.815C0.65955 147.592 1.42057 143.441 2.22336 139.296C2.41138 138.317 2.57254 137.338 2.72772 136.353C2.97244 134.84 3.3216 133.369 3.70659 131.886C3.88565 131.19 4.0498 130.492 4.20201 129.787C4.48552 128.489 4.7959 127.197 5.11522 125.908C5.16297 125.702 5.21371 125.499 5.26444 125.287C5.539 124.183 5.87922 123.153 6.30897 122.103C6.5149 121.407 6.71186 120.712 6.90585 120.014C7.89069 116.6 8.90538 113.266 10.3558 110.016C10.702 109.171 10.9676 108.372 11.2153 107.497C11.5466 106.354 11.9673 105.363 12.5254 104.313C13.1671 102.997 13.6714 101.618 14.1997 100.251C14.5936 99.2603 15.0562 98.3143 15.5426 97.3623C15.8739 96.7027 16.1902 96.0372 16.5006 95.3657C18.6553 90.725 18.6553 90.725 19.9207 88.7673C20.2818 88.1704 20.5922 87.5765 20.8996 86.9498C21.5024 85.7292 22.162 84.5533 22.8543 83.3805C22.9797 83.1656 23.105 82.9507 23.2363 82.7299C24.7405 80.2021 26.361 77.7489 27.9755 75.2898C28.4829 74.5139 28.9693 73.726 29.4558 72.9351C30.5958 71.1326 31.894 69.4524 33.1833 67.7602C34.1532 66.4829 35.0783 65.1758 35.9946 63.8597C36.1468 63.6776 36.296 63.4985 36.4512 63.3105C36.6481 63.3105 36.8451 63.3105 37.048 63.3105C37.1585 63.0718 37.1585 63.0718 37.2719 62.8241C37.7344 61.9437 38.2507 61.1319 38.8387 60.3262C39.0356 60.3262 39.2326 60.3262 39.4355 60.3262C39.5161 60.1531 39.5937 59.98 39.6773 59.8039C40.0414 59.1145 40.4204 58.5296 40.9277 57.9387C41.1247 57.9387 41.3217 57.9387 41.5246 57.9387C41.6022 57.7656 41.6798 57.5925 41.7604 57.4164C42.1453 56.7001 42.5841 56.1719 43.1272 55.5691C43.748 54.8797 44.3329 54.1992 44.8999 53.4621C45.0671 53.2651 45.2312 53.0682 45.4043 52.8652C45.6013 52.8652 45.7982 52.8652 46.0012 52.8652C46.0996 52.5698 46.1981 52.2743 46.2996 51.9699C46.4966 51.9699 46.6935 51.9699 46.8965 51.9699C46.8965 51.7729 46.8965 51.576 46.8965 51.373C47.0934 51.373 47.2904 51.373 47.4933 51.373C47.5918 51.0776 47.6903 50.7821 47.7918 50.4777C47.9888 50.4777 48.1857 50.4777 48.3887 50.4777C48.4633 50.3076 48.5349 50.1345 48.6125 49.9614C49.0422 49.1795 49.5466 48.6423 50.1793 48.0156C50.4926 47.6993 50.4926 47.6993 50.812 47.377C51.373 46.8965 51.373 46.8965 51.9699 46.8965C52.0684 46.601 52.1669 46.3056 52.2683 46.0012C52.4653 46.0012 52.6623 46.0012 52.8652 46.0012C52.8652 45.8042 52.8652 45.6072 52.8652 45.4043C53.0622 45.4043 53.2592 45.4043 53.4621 45.4043C53.5606 45.1088 53.6591 44.8134 53.7605 44.509C53.9575 44.509 54.1545 44.509 54.3574 44.509C54.3574 44.312 54.3574 44.115 54.3574 43.9121C54.8051 43.4585 54.8051 43.4585 55.4198 42.9422C55.6377 42.7571 55.8526 42.5751 56.0764 42.3871C56.2972 42.1991 56.5181 42.014 56.7449 41.823C56.9419 41.647 57.1418 41.4709 57.3478 41.2888C57.5298 41.1247 57.7118 40.9635 57.8999 40.7964C58.1476 40.5756 58.1476 40.5756 58.4012 40.3517C58.834 40.0324 58.834 40.0324 59.4308 40.0324C59.4308 39.8354 59.4308 39.6385 59.4308 39.4355C59.9292 38.9819 60.4515 38.5492 60.9797 38.1284C61.2662 37.8986 61.5527 37.6688 61.8482 37.433C62.1347 37.2062 62.4182 36.9824 62.7137 36.7496C63.1166 36.4124 63.1165 36.4124 63.5314 36.0662C64.2058 35.5558 64.2058 35.5558 64.8027 35.5558C64.8027 35.3589 64.8027 35.1619 64.8027 34.959C65.4653 34.4427 66.1248 33.9592 66.8172 33.4847C67.1932 33.2221 67.5722 32.9565 67.9482 32.6938C68.1273 32.5685 68.3094 32.4461 68.4914 32.3178C68.8943 32.0343 69.2853 31.7358 69.6762 31.4314C70.1746 31.0793 70.1746 31.0793 70.7715 31.0793C70.7715 30.8823 70.7715 30.6853 70.7715 30.4824C71.0669 30.4824 71.3624 30.4824 71.6668 30.4824C71.6668 30.2854 71.6668 30.0885 71.6668 29.8855C72.9739 28.9902 72.9739 28.9902 73.7558 28.9902C73.7558 28.7933 73.7558 28.5963 73.7558 28.3933C74.1737 28.0561 74.1737 28.0561 74.7586 27.692C75.072 27.495 75.072 27.495 75.3943 27.2951C75.6181 27.1578 75.8389 27.0235 76.0687 26.8833C76.2866 26.746 76.5045 26.6087 76.7283 26.4654C77.7251 25.8477 78.5637 25.3493 79.7246 25.1105C79.7246 24.9136 79.7246 24.7166 79.7246 24.5137C79.9096 24.4152 80.0947 24.3167 80.2857 24.2152C82.1927 23.1916 84.0549 22.1083 85.8993 20.9802C88.9224 19.1418 88.9224 19.1418 90.1699 19.1418C90.1699 18.9448 90.1699 18.7478 90.1699 18.5449C90.3221 18.4733 90.4743 18.4017 90.6325 18.327C91.3487 17.9898 92.065 17.6526 92.7812 17.3124C93.0409 17.19 93.3005 17.0676 93.5661 16.9423C94.9867 16.2708 96.3983 15.5844 97.798 14.8711C99.0574 14.2325 100.329 13.6774 101.645 13.17C102.477 12.8447 103.298 12.4986 104.122 12.1464C105.79 11.4451 107.488 10.8422 109.198 10.2454C109.995 9.95289 110.756 9.63655 111.526 9.27544C112.905 8.63678 114.334 8.21598 115.791 7.78325C116.791 7.48481 117.775 7.15952 118.76 6.8193C120.458 6.27017 122.174 5.84639 123.911 5.44947C125.556 5.07344 127.179 4.65861 128.8 4.18111C131.366 3.43203 133.945 2.97841 136.586 2.56656C137.32 2.46509 137.32 2.46509 137.92 2.13084C138.421 2.07713 138.926 2.03534 139.43 1.99953C140.495 1.91298 141.507 1.78764 142.546 1.53397C143.844 1.21763 145.127 1.10422 146.461 1.0117C147.213 0.957984 147.213 0.957984 148.067 0.638656C148.479 0.599859 148.893 0.573 149.308 0.555094C149.544 0.543156 149.783 0.531219 150.025 0.519281C150.523 0.498391 151.021 0.4775 151.52 0.456609C151.755 0.447656 151.991 0.435719 152.236 0.423781C152.454 0.414828 152.669 0.405875 152.893 0.396922C156.698 0.00298437 156.698 0.00298437 156.718 0.00298437ZM163.287 46.0937C162.989 46.1295 162.687 46.1653 162.38 46.2011C160.333 46.4578 158.396 46.8965 156.423 47.4933C156.217 47.556 156.011 47.6157 155.799 47.6814C153.591 48.3648 151.457 49.1467 149.371 50.1465C148.646 50.4867 147.915 50.7851 147.171 51.0746C147.171 51.2716 147.171 51.4685 147.171 51.6715C147.004 51.7013 146.84 51.7312 146.67 51.761C144.095 52.534 140.576 54.9901 138.815 57.0433C138.815 57.2403 138.815 57.4373 138.815 57.6402C138.618 57.6402 138.421 57.6402 138.218 57.6402C138.218 57.8372 138.218 58.0342 138.218 58.2371C138.045 58.3117 137.872 58.3833 137.696 58.4609C136.926 58.8877 136.41 59.3652 135.831 60.0277C135.831 60.2247 135.831 60.4217 135.831 60.6246C135.634 60.6246 135.437 60.6246 135.234 60.6246C134.697 61.2483 134.198 61.8721 133.703 62.5256C133.566 62.7077 133.425 62.8868 133.282 63.0718C132.506 63.985 132.506 63.985 132.25 65.1012C132.053 65.1012 131.856 65.1012 131.653 65.1012C128.579 69.4315 126.612 74.296 125.323 79.4202C125.087 80.3215 125.087 80.3215 124.789 80.9183C124.153 83.8013 124.099 86.6573 124.114 89.5939C124.117 90.3191 124.114 91.0413 124.108 91.7636C124.105 95.4523 124.481 98.941 125.496 102.498C125.556 102.716 125.612 102.937 125.675 103.161C126.051 104.513 126.555 105.716 127.209 106.96C127.51 107.551 127.728 108.154 127.94 108.783C128.916 111.302 130.504 113.567 131.951 115.836C132.065 116.021 132.181 116.206 132.297 116.397C132.563 116.817 132.852 117.223 133.145 117.626C133.342 117.626 133.539 117.626 133.742 117.626C134.04 118.223 134.339 118.82 134.637 119.417C134.834 119.417 135.031 119.417 135.234 119.417C135.309 119.587 135.38 119.757 135.458 119.933C135.888 120.715 136.392 121.252 137.025 121.879C137.234 122.091 137.442 122.3 137.657 122.518C138.171 123.064 138.171 123.064 138.815 122.998C138.961 123.44 138.961 123.44 139.114 123.893C139.311 123.893 139.508 123.893 139.711 123.893C139.711 124.09 139.711 124.287 139.711 124.49C140.227 124.92 140.767 125.329 141.313 125.72C141.612 125.938 141.91 126.153 142.217 126.376C142.922 126.931 142.922 126.931 143.59 126.878C143.59 127.075 143.59 127.272 143.59 127.475C146.977 129.361 150.389 131.208 154.036 132.548C154.233 132.626 154.432 132.706 154.635 132.787C156.751 133.575 158.978 133.876 161.195 134.237C161.702 134.324 162.207 134.422 162.708 134.527C167.531 135.5 172.834 135.118 177.612 134.04C177.711 133.942 177.809 133.843 177.911 133.742C178.281 133.661 178.648 133.581 179.03 133.5C185.377 132.112 191.087 129.182 196.115 125.087C196.387 124.875 196.661 124.663 196.942 124.445C197.216 124.234 197.491 124.019 197.775 123.801C198.028 123.604 198.279 123.407 198.542 123.207C198.724 123.04 198.909 122.873 199.1 122.7C199.1 122.503 199.1 122.306 199.1 122.103C199.297 122.103 199.494 122.103 199.696 122.103C199.696 121.906 199.696 121.709 199.696 121.506C199.992 121.407 200.287 121.309 200.592 121.207C200.592 121.01 200.592 120.813 200.592 120.611C200.789 120.611 200.986 120.611 201.189 120.611C201.797 119.963 201.797 119.963 202.418 119.154C202.636 118.886 202.851 118.614 203.075 118.336C203.633 117.689 203.633 117.689 203.576 117.029C203.773 117.029 203.97 117.029 204.173 117.029C204.657 116.391 204.657 116.391 205.143 115.573C205.421 115.122 205.421 115.122 205.704 114.663C205.889 114.361 206.071 114.057 206.262 113.746C206.42 113.493 206.581 113.239 206.746 112.979C208.396 110.32 209.566 107.578 210.5 104.596C210.739 103.898 210.739 103.898 211.037 103.6C211.079 103.292 211.124 102.985 211.168 102.665C211.374 101.23 211.768 99.899 212.237 98.5262C212.667 97.0041 212.681 95.4552 212.735 93.8825C212.744 93.5542 212.756 93.2289 212.768 92.8917C212.977 86.0724 212.977 86.0724 211.634 79.4262C211.535 79.3277 211.437 79.2292 211.336 79.1277C211.303 78.8323 211.273 78.5368 211.243 78.2324C211.091 77.0745 210.673 76.1463 210.178 75.0958C209.587 73.7857 209.124 72.4248 208.65 71.0699C208.453 71.0699 208.256 71.0699 208.053 71.0699C208.032 70.87 208.011 70.673 207.99 70.4671C207.668 69.2494 207.05 68.3183 206.373 67.2648C206.17 66.9455 206.17 66.9455 205.964 66.6202C203.842 63.3225 201.314 60.3709 198.503 57.6402C198.336 57.4612 198.168 57.2821 197.998 57.1C197.622 56.6793 197.622 56.6793 197.011 56.7449C197.011 56.5479 197.011 56.351 197.011 56.148C196.223 55.4318 196.223 55.4318 195.22 55.2527C195.22 55.0558 195.22 54.8588 195.22 54.6558C194.259 53.9635 194.259 53.9635 193.131 53.7605C193.131 53.5636 193.131 53.3666 193.131 53.1637C191.698 52.34 190.26 51.5372 188.804 50.7583C188.615 50.6568 188.43 50.5553 188.236 50.4509C185.216 48.8333 182.056 47.8574 178.713 47.1382C177.612 46.8965 177.612 46.8965 177.314 46.598C176.189 46.3951 175.052 46.2727 173.917 46.1325C173.607 46.0907 173.294 46.0489 172.971 46.0071C169.671 45.5923 166.579 45.6699 163.287 46.0937ZM78.8293 125.386C78.5308 125.46 78.2294 125.535 77.922 125.609C73.4007 126.749 68.9301 128.997 65.1012 131.653C65.1012 131.85 65.1012 132.047 65.1012 132.25C64.8863 132.324 64.6744 132.396 64.4535 132.473C63.5135 132.888 62.8211 133.396 62.0243 134.04C61.7587 134.249 61.496 134.458 61.2245 134.673C61.0275 134.858 60.8275 135.043 60.6246 135.234C60.6246 135.431 60.6246 135.628 60.6246 135.831C60.3291 135.929 60.0337 136.028 59.7293 136.129C59.7293 136.326 59.7293 136.523 59.7293 136.726C59.5323 136.726 59.3353 136.726 59.1324 136.726C59.1324 136.923 59.1324 137.12 59.1324 137.323C58.837 137.422 58.5415 137.52 58.2371 137.621C58.2371 137.818 58.2371 138.015 58.2371 138.218C58.0401 138.218 57.8432 138.218 57.6402 138.218C56.5539 139.257 56.5539 139.257 56.148 140.606C55.9511 140.606 55.7541 140.606 55.5512 140.606C54.8588 141.567 54.8588 141.567 54.6558 142.695C54.4589 142.695 54.2619 142.695 54.059 142.695C53.6829 143.196 53.6829 143.196 53.3248 143.85C53.1129 144.22 53.1129 144.22 52.898 144.593C52.7518 144.853 52.6056 145.112 52.4534 145.381C52.3101 145.632 52.1669 145.882 52.0177 146.139C50.3613 149.043 48.8572 151.932 48.0514 155.19C47.5292 157.28 47.5292 157.28 47.1949 157.617C47.0815 158.05 46.983 158.485 46.8965 158.921C46.8457 159.16 46.798 159.395 46.7473 159.637C46.2966 162.547 46.2518 165.439 46.2608 168.378C46.2608 168.766 46.2608 169.154 46.2578 169.551C46.2668 176.603 48.0932 183.554 51.5611 189.714C51.9162 190.349 52.2475 190.985 52.5668 191.639C52.7638 191.639 52.9607 191.639 53.1637 191.639C53.1846 191.794 53.2084 191.952 53.2293 192.113C53.5576 193.128 54.1545 193.931 54.7663 194.79C54.8856 194.963 55.005 195.136 55.1274 195.312C55.9839 196.551 55.9839 196.551 57.0433 197.607C57.2403 197.607 57.4373 197.607 57.6402 197.607C57.7029 197.769 57.7686 197.93 57.8342 198.097C58.3744 199.046 59.1085 199.759 59.8785 200.517C60.0277 200.669 60.1769 200.819 60.3291 200.974C61.0812 201.824 61.0812 201.824 62.1168 202.084C62.1168 202.281 62.1168 202.478 62.1168 202.681C62.5227 203.051 62.5227 203.051 63.0658 203.406C63.2688 203.543 63.4687 203.681 63.6776 203.824C63.8955 203.97 64.1133 204.116 64.3372 204.266C64.555 204.415 64.7759 204.564 65.0027 204.719C66.4889 205.716 67.99 206.629 69.5777 207.456C69.8791 207.626 70.1835 207.799 70.4969 207.975C72.2338 208.951 73.8693 209.772 75.8091 210.258C76.4418 210.44 76.4418 210.44 76.9909 210.73C77.6743 211.055 78.2802 211.204 79.0263 211.344C79.2859 211.395 79.5485 211.446 79.8171 211.5C80.0887 211.55 80.3603 211.601 80.6378 211.652C81.175 211.756 81.7152 211.858 82.2524 211.962C82.6105 212.028 82.6105 212.028 82.9746 212.097C83.6043 212.231 83.6043 212.231 84.4996 212.529C85.3681 212.568 86.2276 212.592 87.096 212.601C87.3557 212.604 87.6123 212.604 87.8809 212.607C88.43 212.613 88.9821 212.616 89.5313 212.616C90.0863 212.622 90.6414 212.628 91.1965 212.637C94.4435 212.687 97.3593 212.544 100.484 211.622C101.522 211.333 102.531 211.177 103.6 211.037C104.271 210.804 104.271 210.804 104.868 210.497C105.868 210.022 106.862 209.637 107.909 209.282C109.601 208.682 111.04 207.817 112.553 206.859C112.911 206.65 113.272 206.447 113.633 206.244C114.415 205.794 115.194 205.346 115.967 204.88C116.167 204.761 116.37 204.639 116.579 204.516C116.728 204.403 116.877 204.289 117.029 204.173C117.029 203.976 117.029 203.779 117.029 203.576C117.199 203.496 117.37 203.415 117.546 203.334C118.247 202.967 118.856 202.553 119.491 202.084C119.7 201.929 119.912 201.777 120.13 201.618C120.288 201.475 120.446 201.335 120.611 201.189C120.611 200.992 120.611 200.795 120.611 200.592C120.784 200.517 120.954 200.443 121.133 200.368C121.903 199.941 122.419 199.464 122.998 198.801C122.998 198.604 122.998 198.407 122.998 198.204C123.195 198.204 123.392 198.204 123.595 198.204C124.01 197.778 124.01 197.778 124.428 197.21C124.672 196.891 124.672 196.891 124.92 196.569C125.177 196.223 125.177 196.223 125.442 195.873C125.705 195.521 125.705 195.521 125.973 195.166C131.96 187.153 135.07 178.057 135.085 168.044C135.085 167.841 135.088 167.638 135.088 167.429C135.1 163.481 134.494 159.673 133.33 155.901C133.267 155.692 133.205 155.48 133.139 155.265C131.927 151.35 130.089 147.741 128.071 144.187C127.875 144.187 127.678 144.187 127.475 144.187C127.451 144.026 127.424 143.868 127.4 143.701C127.093 142.734 126.588 142.011 125.982 141.203C125.785 141.203 125.588 141.203 125.386 141.203C125.305 141.03 125.224 140.86 125.141 140.68C124.783 139.997 124.377 139.412 123.911 138.797C123.684 138.496 123.684 138.496 123.455 138.189C123.028 137.66 122.613 137.174 122.103 136.726C121.906 136.726 121.709 136.726 121.506 136.726C121.506 136.529 121.506 136.332 121.506 136.129C118.847 133.655 115.764 131.259 112.553 129.564C112.308 129.423 112.063 129.283 111.813 129.137C110.159 128.2 108.53 127.454 106.73 126.839C105.987 126.579 105.987 126.579 104.904 126.093C103.922 125.693 103.015 125.454 101.979 125.245C101.421 125.132 100.866 125.001 100.314 124.863C93.3214 123.117 85.7351 123.499 78.8293 125.386ZM238.792 124.49C238.135 124.571 237.479 124.622 236.816 124.675C236.013 124.804 235.363 125.072 234.614 125.386C233.999 125.577 233.384 125.765 232.766 125.944C228.558 127.236 224.512 129.137 220.886 131.653C220.886 131.85 220.886 132.047 220.886 132.25C220.65 132.342 220.417 132.435 220.175 132.53C219.414 132.826 219.414 132.826 218.796 133.145C218.796 133.342 218.796 133.539 218.796 133.742C218.623 133.822 218.45 133.903 218.274 133.984C217.585 134.348 217 134.727 216.409 135.234C216.409 135.431 216.409 135.628 216.409 135.831C216.248 135.891 216.09 135.95 215.926 136.013C214.914 136.604 214.174 137.422 213.386 138.275C213.216 138.46 213.046 138.642 212.87 138.833C211.124 140.77 209.712 142.865 208.351 145.082C208.154 145.396 207.957 145.712 207.754 146.034C202.024 155.486 200.222 167.629 202.812 178.376C202.961 178.919 203.117 179.459 203.278 180C203.343 180.226 203.412 180.453 203.481 180.689C204.573 184.145 206.116 187.514 207.754 190.743C207.951 190.743 208.148 190.743 208.351 190.743C208.387 190.916 208.426 191.087 208.462 191.266C208.65 191.943 208.915 192.51 209.246 193.131C209.443 193.131 209.64 193.131 209.843 193.131C209.936 193.364 210.028 193.599 210.124 193.838C210.419 194.599 210.419 194.599 210.739 195.22C210.936 195.22 211.133 195.22 211.336 195.22C211.634 195.817 211.932 196.414 212.231 197.011C212.428 197.011 212.625 197.011 212.828 197.011C212.908 197.187 212.989 197.366 213.069 197.548C213.425 198.204 213.786 198.64 214.311 199.168C214.481 199.341 214.651 199.511 214.827 199.688C215.003 199.864 215.182 200.04 215.364 200.219C215.541 200.398 215.72 200.577 215.902 200.762C216.072 200.932 216.242 201.102 216.418 201.278C216.651 201.511 216.651 201.511 216.889 201.747C217.292 202.147 217.292 202.147 217.901 202.084C217.901 202.281 217.901 202.478 217.901 202.681C218.611 203.224 219.322 203.731 220.065 204.23C220.39 204.451 220.39 204.451 220.721 204.674C222.521 205.883 224.353 207.014 226.257 208.053C226.642 208.265 226.642 208.265 227.036 208.479C228.508 209.252 229.952 209.811 231.561 210.237C232.226 210.44 232.226 210.44 232.847 210.754C233.697 211.174 234.572 211.207 235.509 211.336C236.207 211.527 236.903 211.726 237.598 211.932C239.347 212.431 240.914 212.628 242.728 212.64C242.988 212.643 243.244 212.646 243.51 212.649C244.337 212.658 245.163 212.661 245.99 212.661C246.274 212.661 246.554 212.661 246.844 212.661C251.096 212.655 255.027 212.392 259.086 211.037C259.468 210.921 259.853 210.804 260.235 210.691C262.968 209.799 265.493 208.482 268.039 207.157C268.436 206.957 268.833 206.758 269.232 206.561C269.232 206.364 269.232 206.167 269.232 205.964C269.438 205.892 269.641 205.823 269.853 205.749C270.895 205.292 271.784 204.686 272.7 204.024C272.882 203.893 273.064 203.764 273.249 203.63C274.998 202.35 276.696 200.977 278.186 199.398C278.186 199.201 278.186 199.004 278.186 198.801C278.383 198.801 278.579 198.801 278.782 198.801C279.254 198.359 279.254 198.359 279.714 197.792C279.875 197.607 280.036 197.419 280.203 197.228C280.63 196.736 280.63 196.736 280.573 196.115C280.77 196.115 280.967 196.115 281.17 196.115C281.665 195.453 282.119 194.793 282.57 194.101C282.701 193.898 282.835 193.695 282.972 193.483C285.772 189.177 288.156 184.784 289.264 179.737C289.789 177.382 289.789 177.382 290.123 176.717C291.842 167.674 290.648 158.491 286.84 150.156C286.706 149.857 286.575 149.559 286.437 149.252C285.897 148.049 285.348 146.855 284.751 145.679C284.554 145.679 284.357 145.679 284.154 145.679C284.115 145.506 284.08 145.333 284.041 145.157C283.853 144.48 283.59 143.91 283.259 143.292C283.062 143.292 282.865 143.292 282.662 143.292C282.522 142.94 282.522 142.94 282.382 142.582C282.086 141.823 282.086 141.823 281.767 141.203C281.57 141.203 281.373 141.203 281.17 141.203C281.101 141.042 281.033 140.877 280.964 140.71C280.457 139.797 279.788 139.072 279.081 138.311C278.935 138.156 278.791 138 278.642 137.839C277.284 136.389 275.879 134.959 274.306 133.742C274.109 133.742 273.912 133.742 273.709 133.742C273.709 133.545 273.709 133.348 273.709 133.145C271.957 131.641 269.99 130.456 267.949 129.391C267.343 129.071 266.746 128.728 266.158 128.376C264.995 127.707 263.786 127.269 262.518 126.839C262.303 126.764 262.088 126.69 261.864 126.612C260.873 126.269 259.882 125.956 258.871 125.666C257.892 125.386 257.892 125.386 257.107 125.069C252.988 123.437 242.937 122.416 238.792 124.49Z" fill="black"/>
<path d="M360.081 226.882C363.743 228.201 367.449 230.258 370.404 232.824C370.404 233.021 370.404 233.218 370.404 233.421C370.601 233.421 370.798 233.421 371.001 233.421C371.001 233.618 371.001 233.815 371.001 234.018C371.171 234.09 371.344 234.164 371.523 234.242C372.293 234.669 372.809 235.146 373.388 235.809C373.388 236.006 373.388 236.202 373.388 236.405C373.585 236.405 373.782 236.405 373.985 236.405C374.475 236.952 374.922 237.498 375.364 238.083C375.495 238.259 375.63 238.432 375.767 238.611C377.996 241.61 379.635 244.8 380.849 248.343C380.948 248.617 381.046 248.895 381.148 249.182C381.974 251.835 382.127 254.216 382.118 256.986C382.118 257.406 382.121 257.827 382.121 258.248C382.124 259.397 382.121 260.546 382.121 261.695C382.118 262.937 382.121 264.178 382.124 265.42C382.124 267.849 382.124 270.278 382.124 272.707C382.121 274.683 382.121 276.659 382.121 278.631C382.121 279.055 382.121 279.055 382.121 279.485C382.124 280.058 382.124 280.628 382.124 281.198C382.124 286.555 382.124 291.912 382.118 297.269C382.118 301.862 382.118 306.458 382.121 311.051C382.124 316.39 382.124 321.726 382.124 327.065C382.121 327.632 382.121 328.202 382.121 328.772C382.121 329.052 382.121 329.333 382.121 329.619C382.121 331.592 382.121 333.565 382.124 335.537C382.124 337.94 382.124 340.345 382.121 342.748C382.121 343.974 382.118 345.201 382.121 346.427C382.124 347.55 382.121 348.675 382.118 349.797C382.118 350.394 382.121 350.991 382.121 351.587C382.112 354.133 381.888 356.401 380.867 358.765C380.363 359.959 379.945 361.158 379.569 362.4C379.357 362.943 379.357 362.943 378.76 363.54C378.545 364.044 378.333 364.552 378.125 365.059C377.704 365.978 377.125 366.787 376.54 367.605C376.426 367.769 376.31 367.93 376.194 368.1C375.492 369.094 374.788 370.082 373.985 371.001C373.788 371.001 373.591 371.001 373.388 371.001C373.314 371.171 373.239 371.344 373.164 371.523C372.735 372.293 372.257 372.809 371.598 373.388C371.401 373.388 371.204 373.388 371.001 373.388C371.001 373.585 371.001 373.782 371.001 373.985C370.413 374.489 369.828 374.958 369.21 375.421C369.031 375.555 368.855 375.689 368.673 375.826C366.945 377.122 365.268 378.292 363.241 379.059C362.907 379.267 362.907 379.267 362.564 379.485C361.693 379.984 360.884 380.264 359.92 380.551C359.612 380.643 359.302 380.736 358.986 380.828C358.616 380.933 358.249 381.04 357.87 381.148C357.664 381.219 357.458 381.294 357.246 381.368C354.467 382.279 351.689 382.165 348.803 382.156C348.212 382.156 347.618 382.159 347.027 382.159C345.401 382.165 343.774 382.162 342.148 382.159C340.381 382.159 338.611 382.162 336.842 382.165C333.741 382.168 330.64 382.171 327.539 382.168C324.215 382.168 320.887 382.168 317.56 382.171C317.351 382.171 317.142 382.171 316.924 382.171C316.067 382.171 315.211 382.171 314.354 382.174C305.667 382.18 296.976 382.183 288.289 382.183C287.086 382.183 285.886 382.183 284.687 382.183C284.448 382.183 284.209 382.183 283.965 382.18C278.679 382.18 273.397 382.183 268.112 382.183C266.906 382.186 265.697 382.186 264.491 382.186C264.008 382.186 263.525 382.186 263.038 382.186C262.799 382.186 262.558 382.186 262.313 382.186C261.826 382.186 261.34 382.186 260.854 382.186C247.078 382.192 233.302 382.195 219.526 382.192C219.269 382.192 219.016 382.192 218.753 382.192C215.909 382.192 213.065 382.192 210.221 382.192C209.442 382.192 208.663 382.192 207.884 382.192C207.365 382.192 206.845 382.192 206.326 382.192C189.894 382.189 173.465 382.195 157.033 382.204C152.894 382.207 148.751 382.207 144.612 382.21C144.355 382.21 144.102 382.21 143.839 382.21C135.981 382.216 128.126 382.219 120.269 382.219C120.024 382.219 119.776 382.219 119.522 382.219C114.109 382.219 108.695 382.219 103.281 382.219C101.345 382.219 99.4078 382.219 97.4709 382.219C96.9904 382.219 96.507 382.219 96.0265 382.219C88.3447 382.219 80.6659 382.222 72.9841 382.228C65.2486 382.234 57.5161 382.234 49.7836 382.228C48.7152 382.228 47.6468 382.228 46.5784 382.228C46.262 382.228 46.262 382.228 45.9427 382.228C42.6241 382.225 39.3055 382.228 35.9898 382.234C32.7279 382.237 29.466 382.237 26.204 382.231C24.4612 382.228 22.7153 382.228 20.9694 382.234C19.3817 382.24 17.7971 382.237 16.2094 382.231C15.6393 382.228 15.0664 382.231 14.4963 382.234C9.05582 382.27 9.0558 382.27 6.60862 380.551C6.31316 380.354 6.01771 380.157 5.7133 379.954C5.7133 379.757 5.7133 379.56 5.7133 379.357C5.45366 379.261 5.45366 379.262 5.19104 379.163C3.54665 378.178 2.22158 375.826 1.6844 374.003C0.980084 369.941 1.83363 367.029 3.97641 363.623C4.52255 362.937 4.90155 362.656 5.7133 362.346C5.7133 362.149 5.7133 361.952 5.7133 361.749C7.73074 360.081 10.0018 359.362 12.5774 359.362C12.5774 337.4 12.5774 315.438 12.5774 292.81C11.691 292.712 10.8046 292.613 9.89143 292.512C9.09162 292.252 9.09162 292.252 8.47385 291.951C8.14258 291.792 8.14259 291.792 7.80834 291.628C6.34898 290.873 6.34897 290.873 5.7133 290.423C5.7133 290.226 5.7133 290.029 5.7133 289.826C5.45366 289.73 5.45366 289.73 5.19104 289.632C3.54665 288.647 2.22158 286.295 1.6844 284.472C0.980084 280.41 1.83363 277.497 3.97641 274.092C4.52255 273.406 4.90155 273.125 5.7133 272.815C5.7133 272.618 5.7133 272.421 5.7133 272.218C6.14007 271.863 6.14008 271.863 6.73696 271.49C6.92796 271.367 7.11894 271.245 7.31591 271.117C10.3063 269.619 13.1474 269.702 16.4123 269.717C16.9942 269.717 17.5762 269.714 18.1582 269.714C19.7608 269.711 21.3634 269.711 22.966 269.714C24.7059 269.717 26.4488 269.714 28.1916 269.711C31.2447 269.708 34.2977 269.708 37.3507 269.711C40.6275 269.714 43.9044 269.714 47.1812 269.714C47.3901 269.714 47.596 269.711 47.8079 269.711C48.8644 269.711 49.9209 269.711 50.9743 269.711C58.3816 269.705 65.7858 269.705 73.19 269.708C80.9912 269.708 88.7923 269.708 96.5935 269.705C96.9457 269.705 96.9457 269.705 97.3068 269.705C99.933 269.702 102.559 269.702 105.186 269.699C110.041 269.696 114.9 269.696 119.755 269.693C120.119 269.693 120.119 269.693 120.492 269.693C132.06 269.687 143.624 269.684 155.192 269.684C155.959 269.684 156.726 269.684 157.496 269.684C165.458 269.681 173.423 269.681 181.389 269.681C189.094 269.678 196.8 269.678 204.506 269.678C205.273 269.678 206.039 269.675 206.806 269.675C218.365 269.675 229.92 269.672 241.479 269.666C241.721 269.666 241.962 269.666 242.213 269.666C247.066 269.666 251.918 269.663 256.768 269.66C259.391 269.657 262.014 269.657 264.638 269.657C264.873 269.657 265.109 269.657 265.351 269.657C273.149 269.651 280.947 269.651 288.745 269.654C296.129 269.654 303.512 269.654 310.896 269.648C311.946 269.648 312.999 269.648 314.05 269.648C314.36 269.648 314.36 269.648 314.674 269.648C317.945 269.645 321.212 269.645 324.48 269.648C327.692 269.651 330.903 269.651 334.114 269.645C335.833 269.645 337.552 269.642 339.271 269.648C340.835 269.651 342.396 269.648 343.959 269.645C344.523 269.642 345.085 269.645 345.649 269.645C346.41 269.648 347.174 269.648 347.938 269.642C348.152 269.645 348.37 269.648 348.597 269.648C350.17 269.633 351.34 269.237 352.796 268.637C353.289 268.523 353.787 268.416 354.288 268.338C354.288 268.141 354.288 267.944 354.288 267.741C354.584 267.741 354.879 267.741 355.184 267.741C355.184 267.544 355.184 267.347 355.184 267.144C355.673 266.64 356.171 266.142 356.676 265.652C356.873 265.357 357.07 265.061 357.273 264.757C357.47 264.757 357.667 264.757 357.87 264.757C357.899 264.56 357.929 264.363 357.962 264.16C358.168 263.265 358.168 263.265 358.634 262.22C359.415 260.185 359.412 257.72 358.669 255.673C358.422 255.147 358.422 255.147 358.168 254.61C358.031 254.303 357.896 253.992 357.756 253.676C357.115 252.542 356.377 251.327 355.184 250.73C355.184 250.533 355.184 250.336 355.184 250.134C354.906 250.047 354.629 249.96 354.342 249.871C353.393 249.537 353.393 249.537 352.498 248.94C350.435 248.134 348.287 248.209 346.099 248.155C345.708 248.143 345.32 248.131 344.92 248.119C343.962 248.092 343.007 248.065 342.052 248.044C341.721 247.516 341.721 247.516 341.455 246.851C341.617 246.305 341.617 246.305 341.942 245.747C342.652 244.46 343.234 243.15 343.804 241.795C343.909 241.55 344.01 241.306 344.118 241.055C344.888 239.199 345.577 237.325 346.225 235.427C346.592 234.364 346.98 233.335 347.46 232.32C348.138 230.875 348.523 229.356 348.937 227.819C349.182 226.966 349.433 226.166 349.812 225.363C352.462 224.038 357.377 226.017 360.081 226.882ZM35.8555 292.81C35.8555 314.772 35.8555 336.734 35.8555 359.362C57.719 359.362 79.5826 359.362 102.109 359.362C102.109 337.4 102.109 315.438 102.109 292.81C80.2451 292.81 58.3816 292.81 35.8555 292.81ZM125.088 292.81C125.088 314.772 125.088 336.734 125.088 359.362C146.853 359.362 168.618 359.362 191.043 359.362C191.043 337.4 191.043 315.438 191.043 292.81C169.278 292.81 147.513 292.81 125.088 292.81ZM214.321 292.81C214.321 314.772 214.321 336.734 214.321 359.362C236.382 359.362 258.442 359.362 281.171 359.362C281.171 337.4 281.171 315.438 281.171 292.81C259.111 292.81 237.05 292.81 214.321 292.81ZM358.452 291.288C354.903 292.61 350.892 292.643 347.15 292.64C346.666 292.643 346.18 292.646 345.696 292.649C344.416 292.658 343.136 292.661 341.858 292.661C340.65 292.664 339.441 292.673 338.235 292.679C334.72 292.697 331.204 292.706 327.689 292.715C315.888 292.762 315.888 292.762 303.852 292.81C303.852 314.772 303.852 336.734 303.852 359.362C311.483 359.38 319.117 359.397 326.981 359.415C329.39 359.424 331.798 359.433 334.278 359.442C336.442 359.445 336.442 359.445 338.602 359.445C339.563 359.448 340.527 359.451 341.488 359.454C342.718 359.46 343.944 359.463 345.174 359.463C345.625 359.463 346.072 359.463 346.523 359.466C348.782 359.484 350.725 359.46 352.796 358.466C353.092 358.347 353.387 358.231 353.691 358.111C353.987 357.992 353.987 357.992 354.288 357.869C354.288 357.673 354.288 357.476 354.288 357.273C354.584 357.273 354.879 357.273 355.184 357.273C355.184 357.076 355.184 356.879 355.184 356.676C355.36 356.601 355.539 356.527 355.724 356.452C356.47 356.025 356.819 355.61 357.273 354.885C357.273 354.688 357.273 354.491 357.273 354.288C357.47 354.288 357.667 354.288 357.87 354.288C359.001 352.175 359.451 350.289 359.433 347.902C359.433 347.657 359.433 347.412 359.433 347.162C359.433 346.347 359.43 345.532 359.427 344.717C359.427 344.132 359.427 343.547 359.427 342.963C359.427 341.375 359.424 339.79 359.421 338.202C359.418 336.543 359.418 334.887 359.415 333.228C359.415 330.085 359.409 326.945 359.404 323.806C359.398 320.231 359.395 316.655 359.392 313.08C359.386 305.726 359.374 298.373 359.362 291.019C358.998 290.999 358.998 290.999 358.452 291.288Z" fill="black"/>
<path d="M259.085 149.261C259.085 149.457 259.085 149.654 259.085 149.857C259.288 149.92 259.491 149.98 259.7 150.042C263.553 151.848 265.824 156.22 267.665 159.837C269.438 164.887 269.913 171.231 267.725 176.242C267.445 176.806 267.146 177.358 266.845 177.911C266.734 178.304 266.633 178.704 266.546 179.104C266.349 179.104 266.152 179.104 265.949 179.104C265.893 179.364 265.893 179.364 265.836 179.627C265.648 180.304 265.385 180.874 265.054 181.492C264.857 181.492 264.66 181.492 264.457 181.492C264.377 181.665 264.296 181.841 264.216 182.02C262.025 186.141 257.295 188.654 253.063 190.194C246.524 192.152 240.481 190.866 234.512 187.896C233.79 187.499 233.148 187.108 232.524 186.565C232.524 186.368 232.524 186.171 232.524 185.968C232.032 185.771 231.54 185.574 231.032 185.371C231.032 185.174 231.032 184.978 231.032 184.775C230.859 184.703 230.686 184.631 230.507 184.557C227.609 182.909 225.347 178.364 224.467 175.225C224.383 174.935 224.302 174.646 224.216 174.35C223.016 169.569 222.888 163.726 225.374 159.324C225.717 158.739 225.717 158.739 226.072 157.766C227.669 154.322 230.85 151.009 234.017 148.962C234.312 148.962 234.608 148.962 234.912 148.962C234.912 148.765 234.912 148.568 234.912 148.365C243.22 144.369 251.114 144.635 259.085 149.261Z" fill="black"/>
<path d="M103.301 149.261C103.301 149.457 103.301 149.654 103.301 149.857C103.468 149.881 103.632 149.908 103.805 149.932C104.716 150.227 105.286 150.708 105.987 151.35C105.987 151.547 105.987 151.744 105.987 151.946C106.282 152.045 106.578 152.143 106.882 152.245C106.882 152.442 106.882 152.639 106.882 152.842C107.079 152.842 107.276 152.842 107.479 152.842C107.984 153.439 108.443 154.033 108.897 154.668C109.031 154.856 109.162 155.044 109.3 155.235C112.988 160.577 113.737 166.713 112.994 173.046C112.726 174.341 112.194 175.514 111.657 176.717C111.523 177.06 111.386 177.406 111.245 177.761C108.715 183.214 104.19 187.678 98.526 189.791C93.1004 191.579 87.0213 191.836 81.8135 189.251C81.4763 189.117 81.1361 188.98 80.7869 188.839C79.3783 188.198 77.9965 187.472 76.7401 186.565C76.7401 186.368 76.7401 186.171 76.7401 185.968C76.567 185.888 76.3939 185.807 76.2178 185.727C75.5284 185.362 74.9435 184.983 74.3526 184.476C74.3526 184.279 74.3526 184.082 74.3526 183.879C74.1556 183.879 73.9587 183.879 73.7557 183.879C72.8604 182.847 72.8604 182.847 72.8604 182.089C72.6634 182.089 72.4665 182.089 72.2635 182.089C68.7062 176.203 66.6738 170.223 68.1421 163.305C69.0106 160.112 70.3804 157.348 72.2635 154.632C72.4187 154.406 72.5769 154.176 72.7381 153.943C72.8753 153.776 73.0156 153.609 73.1589 153.439C73.3558 153.439 73.5528 153.439 73.7557 153.439C73.8363 153.248 73.9169 153.057 73.9975 152.86C74.3526 152.245 74.3526 152.245 75.2479 151.946C75.2479 151.749 75.2479 151.553 75.2479 151.35C75.4449 151.35 75.6419 151.35 75.8448 151.35C75.9433 151.054 76.0418 150.759 76.1432 150.454C76.5969 150.039 76.5969 150.039 77.1519 149.651C77.4205 149.457 77.4205 149.457 77.6981 149.258C78.2323 148.962 78.2323 148.962 79.1276 148.962C79.1276 148.765 79.1276 148.568 79.1276 148.365C79.3186 148.291 79.5096 148.213 79.7066 148.135C79.9662 148.034 80.2229 147.929 80.4885 147.825C80.7421 147.724 80.9958 147.622 81.2555 147.521C81.8792 147.267 82.4999 146.995 83.1147 146.715C84.2369 146.261 85.3291 145.984 86.5139 145.772C86.7228 145.736 86.9317 145.697 87.1496 145.658C92.9393 144.685 98.3082 146.363 103.301 149.261Z" fill="black"/>
<path d="M168.51 67.7125C168.895 67.7095 169.283 67.7065 169.679 67.7065C171.542 67.7095 173.18 67.7155 174.926 68.384C175.421 68.569 175.421 68.569 175.929 68.76C178.236 69.73 180.334 70.8282 182.387 72.2637C182.614 72.4189 182.841 72.5741 183.073 72.7352C183.24 72.8755 183.408 73.0157 183.581 73.159C183.581 73.356 183.581 73.5529 183.581 73.7559C183.876 73.8544 184.172 73.9528 184.476 74.0543C184.476 74.2513 184.476 74.4482 184.476 74.6512C184.673 74.6512 184.87 74.6512 185.073 74.6512C187.153 76.9641 188.577 79.5903 189.848 82.4106C189.952 82.6344 190.057 82.8612 190.167 83.094C190.985 85.4725 191.137 87.8182 191.116 90.3192C191.119 90.6086 191.122 90.8981 191.122 91.1936C191.107 97.1086 188.547 102.448 184.446 106.656C180.023 110.986 174.786 112.985 168.677 112.983C168.471 112.983 168.262 112.983 168.05 112.983C163.021 112.965 159.383 111.828 155.229 108.972C154.784 108.676 154.784 108.676 154.334 108.375C154.334 108.178 154.334 107.981 154.334 107.778C154.164 107.706 153.994 107.632 153.82 107.557C151.809 106.444 150.159 104.337 148.962 102.406C148.962 102.11 148.962 101.815 148.962 101.511C148.765 101.511 148.568 101.511 148.365 101.511C148.073 100.785 147.78 100.057 147.494 99.332C147.24 98.6963 146.965 98.0696 146.688 97.4429C144.852 92.3963 145.315 86.0575 147.47 81.2168C148.398 79.3605 149.395 77.4207 150.753 75.8449C150.95 75.8449 151.146 75.8449 151.349 75.8449C151.43 75.6659 151.511 75.4868 151.591 75.3048C151.946 74.6512 152.275 74.2304 152.842 73.7559C153.039 73.7559 153.236 73.7559 153.438 73.7559C153.537 73.4604 153.635 73.165 153.737 72.8606C153.934 72.8606 154.131 72.8606 154.334 72.8606C154.334 72.6636 154.334 72.4666 154.334 72.2637C156.706 70.5059 159.294 69.3032 162.093 68.384C162.386 68.2736 162.678 68.1632 162.983 68.0497C164.767 67.5543 166.674 67.7006 168.51 67.7125Z" fill="black"/>
<path d="M181.444 227.422C183.47 228.962 185.314 230.803 186.863 232.824C186.863 233.021 186.863 233.218 186.863 233.421C187.06 233.421 187.257 233.421 187.46 233.421C187.845 234.185 188.233 234.949 188.618 235.716C188.779 236.038 188.779 236.038 188.946 236.366C190.865 240.189 191.131 243.526 191.041 247.746C190.233 248.149 189.606 248.083 188.699 248.083C188.144 248.086 188.144 248.086 187.574 248.086C187.159 248.086 186.747 248.086 186.332 248.086C185.896 248.089 185.464 248.089 185.028 248.089C183.846 248.092 182.667 248.092 181.485 248.092C180.501 248.095 179.516 248.095 178.531 248.095C176.206 248.098 173.884 248.098 171.562 248.098C169.163 248.098 166.764 248.101 164.364 248.107C162.305 248.11 160.249 248.113 158.189 248.113C156.96 248.113 155.73 248.113 154.501 248.116C153.346 248.119 152.188 248.119 151.033 248.116C150.606 248.116 150.182 248.116 149.756 248.119C149.177 248.122 148.598 248.119 148.022 248.116C147.535 248.119 147.535 248.119 147.037 248.119C146.276 248.044 146.276 248.044 145.679 247.447C145.249 244.379 145.849 240.685 147.171 237.897C147.32 237.575 147.467 237.25 147.619 236.918C148.616 234.805 149.678 232.701 151.349 231.033C151.546 231.033 151.743 231.033 151.946 231.033C152.027 230.842 152.107 230.651 152.188 230.454C152.543 229.839 152.543 229.839 153.438 229.541C153.438 229.344 153.438 229.147 153.438 228.944C154.471 228.049 154.471 228.049 155.229 228.049C155.229 227.852 155.229 227.655 155.229 227.452C163.746 222.659 173.028 221.785 181.444 227.422Z" fill="black"/>
</svg>
