<svg width="45" height="46" viewBox="0 0 45 46" fill="none" xmlns="http://www.w3.org/2000/svg">
<rect x="10" y="11" width="35" height="35" rx="13" fill="#A902F8" fill-opacity="0.2"/>
<g clip-path="url(#clip0_584_4)">
<path fill-rule="evenodd" clip-rule="evenodd" d="M11.1974 1.599C12.9574 1.51833 13.5184 1.5 18 1.5C22.4825 1.5 23.0426 1.51924 24.8016 1.599C26.5589 1.67875 27.7589 1.95834 28.8084 2.36625C29.9093 2.78071 30.9064 3.43011 31.7307 4.26925C32.5699 5.0934 33.2194 6.09069 33.6338 7.19159C34.0416 8.24117 34.3203 9.44109 34.401 11.1974C34.4817 12.9574 34.5 13.5184 34.5 18C34.5 22.4816 34.4808 23.0426 34.401 24.8027C34.3212 26.5589 34.0416 27.7589 33.6338 28.8084C33.2121 29.8929 32.6473 30.814 31.7307 31.7307C30.9066 32.5699 29.9093 33.2194 28.8084 33.6338C27.7589 34.0416 26.5589 34.3203 24.8027 34.401C23.0426 34.4817 22.4816 34.5 18 34.5C13.5184 34.5 12.9574 34.4808 11.1974 34.401C9.44109 34.3212 8.24117 34.0416 7.19159 33.6338C6.10716 33.2121 5.18592 32.6473 4.26925 31.7307C3.42996 30.9066 2.78052 29.9093 2.36625 28.8084C1.95834 27.7589 1.67967 26.5589 1.599 24.8027C1.51833 23.0426 1.5 22.4825 1.5 18C1.5 13.5175 1.51924 12.9574 1.599 11.1983C1.67875 9.44109 1.95834 8.24117 2.36625 7.19159C2.78071 6.09077 3.43011 5.09352 4.26925 4.26925C5.09338 3.42996 6.09068 2.78052 7.19159 2.36625C8.24117 1.95834 9.44109 1.67967 11.1974 1.599ZM24.6678 4.569C22.9279 4.49016 22.4055 4.47274 18 4.47274C13.5945 4.47274 13.072 4.49016 11.3322 4.569C9.72342 4.64233 8.84984 4.91091 8.26866 5.13734C7.49867 5.43617 6.94866 5.79366 6.37116 6.37116C5.79459 6.94866 5.43617 7.49867 5.13734 8.26866C4.91091 8.84984 4.64233 9.72342 4.569 11.3322C4.49016 13.072 4.47274 13.5945 4.47274 18C4.47274 22.4055 4.49016 22.9279 4.569 24.6678C4.64233 26.2766 4.91091 27.1502 5.13734 27.7314C5.40166 28.4481 5.82328 29.0964 6.37116 29.6289C6.90351 30.1767 7.55192 30.5984 8.26866 30.8626C8.84984 31.0891 9.72342 31.3577 11.3322 31.431C13.072 31.5099 13.5936 31.5273 18 31.5273C22.4064 31.5273 22.9279 31.5099 24.6678 31.431C26.2766 31.3577 27.1502 31.0891 27.7314 30.8626C28.5014 30.5639 29.0514 30.2064 29.6289 29.6289C30.1767 29.0965 30.5984 28.4481 30.8626 27.7314C31.0891 27.1502 31.3577 26.2766 31.431 24.6678C31.5099 22.9279 31.5273 22.4055 31.5273 18C31.5273 13.5945 31.5099 13.072 31.431 11.3322C31.3577 9.72342 31.0891 8.84984 30.8626 8.26866C30.5639 7.49867 30.2064 6.94866 29.6289 6.37116C29.0514 5.79459 28.5014 5.43617 27.7314 5.13734C27.1502 4.91091 26.2766 4.64233 24.6678 4.569ZM15.8932 23.0863C16.5612 23.3631 17.277 23.5054 18 23.5054C19.4603 23.5054 20.8605 22.9254 21.893 21.893C22.9256 20.8605 23.5056 19.4601 23.5056 18C23.5056 16.5399 22.9256 15.1395 21.893 14.107C20.8605 13.0745 19.4603 12.4945 18 12.4945C17.277 12.4945 16.5612 12.6369 15.8932 12.9136C15.2252 13.1902 14.6183 13.5958 14.1071 14.107C13.5958 14.6183 13.1903 15.2252 12.9136 15.8931C12.6369 16.561 12.4946 17.277 12.4946 18C12.4946 18.723 12.6369 19.4389 12.9136 20.1069C13.1903 20.7749 13.5958 21.3818 14.1071 21.893C14.6183 22.4042 15.2252 22.8097 15.8932 23.0863ZM12.0031 12.003C13.5936 10.4125 15.7507 9.51899 18 9.51899C20.2494 9.51899 22.4065 10.4125 23.997 12.003C25.5875 13.5935 26.481 15.7507 26.481 18C26.481 20.2493 25.5875 22.4064 23.997 23.997C22.4065 25.5875 20.2494 26.481 18 26.481C15.7507 26.481 13.5936 25.5875 12.0031 23.997C10.4126 22.4064 9.51904 20.2493 9.51904 18C9.51904 15.7507 10.4126 13.5935 12.0031 12.003ZM28.3615 10.7826C28.7374 10.4066 28.9487 9.89668 28.9487 9.365C28.9487 8.83329 28.7374 8.32338 28.3615 7.94742C27.9855 7.57146 27.4757 7.36024 26.9439 7.36024C26.4123 7.36024 25.9023 7.57146 25.5264 7.94742C25.1503 8.32338 24.9392 8.83329 24.9392 9.365C24.9392 9.89668 25.1503 10.4066 25.5264 10.7826C25.9023 11.1585 26.4123 11.3697 26.9439 11.3697C27.4757 11.3697 27.9855 11.1585 28.3615 10.7826Z" fill="#A902F8"/>
</g>
<defs>
<clipPath id="clip0_584_4">
<rect width="36" height="36" fill="white"/>
</clipPath>
</defs>
</svg>
