<svg width="24" height="24" viewBox="0 0 24 24" fill="none" xmlns="http://www.w3.org/2000/svg">
<g clip-path="url(#clip0_456_2691)">
<g clip-path="url(#clip1_456_2691)">
<g clip-path="url(#clip2_456_2691)">
<path fill-rule="evenodd" clip-rule="evenodd" d="M8.22046 2.88837C9.19824 2.84356 9.50991 2.83337 11.9997 2.83337C14.4899 2.83337 14.8011 2.84407 15.7783 2.88837C16.7546 2.93268 17.4213 3.08801 18.0043 3.31462C18.6159 3.54488 19.1699 3.90566 19.6278 4.37185C20.0941 4.82971 20.4549 5.38376 20.6851 5.99537C20.9117 6.57847 21.0665 7.24509 21.1113 8.22082C21.1562 9.19861 21.1663 9.51027 21.1663 12C21.1663 14.4898 21.1557 14.8015 21.1113 15.7793C21.067 16.755 20.9117 17.4216 20.6851 18.0047C20.4508 18.6072 20.1371 19.119 19.6278 19.6282C19.17 20.0945 18.6159 20.4553 18.0043 20.6855C17.4213 20.912 16.7546 21.0669 15.7789 21.1117C14.8011 21.1565 14.4894 21.1667 11.9997 21.1667C9.50991 21.1667 9.19824 21.156 8.22046 21.1117C7.24472 21.0674 6.5781 20.912 5.995 20.6855C5.39254 20.4512 4.88074 20.1375 4.37148 19.6282C3.90521 19.1704 3.54441 18.6163 3.31426 18.0047C3.08764 17.4216 2.93282 16.755 2.88801 15.7793C2.84319 14.8015 2.83301 14.4903 2.83301 12C2.83301 9.50977 2.8437 9.19861 2.88801 8.22134C2.93232 7.24509 3.08764 6.57847 3.31426 5.99537C3.54452 5.3838 3.90529 4.82977 4.37148 4.37185C4.82933 3.90557 5.38338 3.54477 5.995 3.31462C6.5781 3.08801 7.24472 2.93319 8.22046 2.88837ZM15.704 4.53837C14.7374 4.49457 14.4472 4.4849 11.9997 4.4849C9.55217 4.4849 9.2619 4.49457 8.29532 4.53837C7.40157 4.57912 6.91625 4.72832 6.59337 4.85412C6.1656 5.02013 5.86004 5.21874 5.53921 5.53957C5.21889 5.86041 5.01977 6.16597 4.85375 6.59374C4.72796 6.91662 4.57875 7.40194 4.53801 8.29569C4.49421 9.26227 4.48453 9.55254 4.48453 12C4.48453 14.4475 4.49421 14.7378 4.53801 15.7044C4.57875 16.5981 4.72796 17.0835 4.85375 17.4064C5.0006 17.8045 5.23483 18.1647 5.53921 18.4605C5.83496 18.7649 6.19518 18.9991 6.59337 19.146C6.91625 19.2718 7.40157 19.421 8.29532 19.4617C9.2619 19.5055 9.55167 19.5152 11.9997 19.5152C14.4477 19.5152 14.7374 19.5055 15.704 19.4617C16.5978 19.421 17.0831 19.2718 17.406 19.146C17.8338 18.98 18.1393 18.7814 18.4602 18.4605C18.7645 18.1648 18.9988 17.8045 19.1456 17.4064C19.2714 17.0835 19.4206 16.5981 19.4613 15.7044C19.5052 14.7378 19.5148 14.4475 19.5148 12C19.5148 9.55254 19.5052 9.26227 19.4613 8.29569C19.4206 7.40194 19.2714 6.91662 19.1456 6.59374C18.9796 6.16597 18.781 5.86041 18.4602 5.53957C18.1393 5.21926 17.8338 5.02013 17.406 4.85412C17.0831 4.72832 16.5978 4.57912 15.704 4.53837ZM10.8293 14.8258C11.2003 14.9795 11.598 15.0586 11.9997 15.0586C12.8109 15.0586 13.5888 14.7364 14.1624 14.1628C14.7361 13.5892 15.0583 12.8112 15.0583 12C15.0583 11.1889 14.7361 10.4109 14.1624 9.83727C13.5888 9.26367 12.8109 8.94142 11.9997 8.94142C11.598 8.94142 11.2003 9.02054 10.8293 9.17425C10.4581 9.32796 10.1209 9.55325 9.83693 9.83727C9.55292 10.1213 9.32762 10.4585 9.17391 10.8295C9.0202 11.2006 8.94109 11.5984 8.94109 12C8.94109 12.4017 9.0202 12.7995 9.17391 13.1705C9.32762 13.5416 9.55292 13.8788 9.83693 14.1628C10.1209 14.4468 10.4581 14.6721 10.8293 14.8258ZM8.66805 8.66838C9.55166 7.78477 10.7501 7.28837 11.9997 7.28837C13.2493 7.28837 14.4478 7.78477 15.3313 8.66838C16.2149 9.55199 16.7113 10.7505 16.7113 12C16.7113 13.2496 16.2149 14.448 15.3313 15.3317C14.4478 16.2153 13.2493 16.7117 11.9997 16.7117C10.7501 16.7117 9.55166 16.2153 8.66805 15.3317C7.78444 14.448 7.28803 13.2496 7.28803 12C7.28803 10.7505 7.78444 9.55199 8.66805 8.66838ZM17.7561 7.99036C17.9649 7.78148 18.0823 7.4982 18.0823 7.20282C18.0823 6.90742 17.9649 6.62414 17.7561 6.41527C17.5472 6.20641 17.2639 6.08907 16.9685 6.08907C16.6732 6.08907 16.3898 6.20641 16.181 6.41527C15.9721 6.62414 15.8548 6.90742 15.8548 7.20282C15.8548 7.4982 15.9721 7.78148 16.181 7.99036C16.3898 8.19922 16.6732 8.31657 16.9685 8.31657C17.2639 8.31657 17.5472 8.19922 17.7561 7.99036Z" fill="white"/>
</g>
</g>
</g>
<defs>
<clipPath id="clip0_456_2691">
<rect width="24" height="24" fill="white"/>
</clipPath>
<clipPath id="clip1_456_2691">
<rect width="20" height="20" fill="white" transform="translate(2 2)"/>
</clipPath>
<clipPath id="clip2_456_2691">
<rect width="20" height="20" fill="white" transform="translate(2 2)"/>
</clipPath>
</defs>
</svg>
