<svg width="24" height="23" viewBox="0 0 24 23" fill="none" xmlns="http://www.w3.org/2000/svg">
<path d="M12 17C16 17 17 13 17 13H7C7 13 8 17 12 17Z" fill="white"/>
<path d="M12 21C17.514 21 22 16.514 22 11C22 5.486 17.514 1 12 1C6.486 1 2 5.486 2 11C2 16.514 6.486 21 12 21ZM12 3C16.411 3 20 6.589 20 11C20 15.411 16.411 19 12 19C7.589 19 4 15.411 4 11C4 6.589 7.589 3 12 3Z" fill="white"/>
<path d="M8.53498 11.634L10.585 9.55099C10.7244 9.41158 10.8347 9.24582 10.9094 9.06335C10.984 8.88088 11.0216 8.68537 11.02 8.48821C11.0183 8.29106 10.9774 8.09621 10.8996 7.91504C10.8218 7.73387 10.7088 7.57 10.567 7.43299C10.2939 7.16162 9.92629 7.00651 9.54133 7.00017C9.15636 6.99383 8.78389 7.13676 8.50198 7.39899C8.21586 7.14012 7.84037 7.00251 7.45474 7.0152C7.0691 7.02788 6.70347 7.18987 6.43498 7.46699C5.84898 8.06699 5.85598 8.99699 6.45398 9.58399L8.53498 11.634ZM15.535 11.634L17.585 9.55099C17.7244 9.41158 17.8347 9.24582 17.9094 9.06335C17.984 8.88088 18.0216 8.68537 18.02 8.48821C18.0183 8.29106 17.9774 8.09621 17.8996 7.91504C17.8218 7.73387 17.7088 7.57 17.567 7.43299C17.2939 7.16162 16.9263 7.00651 16.5413 7.00017C16.1564 6.99383 15.7839 7.13676 15.502 7.39899C15.2159 7.13969 14.8403 7.00172 14.4544 7.01422C14.0686 7.02672 13.7026 7.18872 13.434 7.46599C12.848 8.06599 12.855 8.99599 13.453 9.58299L15.535 11.634Z" fill="white"/>
</svg>
