<svg width="45" height="45" viewBox="0 0 45 45" fill="none" xmlns="http://www.w3.org/2000/svg">
<rect x="10" y="10" width="35" height="35" rx="13" fill="#00B2FF" fill-opacity="0.2"/>
<g clip-path="url(#clip0_582_2)">
<path d="M34.5 4.51509C34.5 4.51509 31.4732 6.30325 29.79 6.81009C28.8866 5.77135 27.6859 5.03512 26.3505 4.70097C25.015 4.36683 23.6093 4.45087 22.3232 4.94176C21.0371 5.43265 19.9326 6.30669 19.1595 7.44565C18.3862 8.58463 17.9816 9.93358 18 11.3101V12.8101C15.3639 12.8784 12.7519 12.2938 10.3965 11.1082C8.04111 9.92269 6.01548 8.17303 4.5 6.01509C4.5 6.01509 -1.5 19.5151 12 25.5151C8.9108 27.612 5.23074 28.6635 1.5 28.5151C15 36.0151 31.5 28.5151 31.5 11.2651C31.4987 10.8473 31.4585 10.4305 31.38 10.0201C32.9109 8.51032 34.5 4.51509 34.5 4.51509Z" stroke="#00B3FF" stroke-width="1.5" stroke-linecap="round" stroke-linejoin="round"/>
</g>
<defs>
<clipPath id="clip0_582_2">
<rect width="36" height="36" fill="white"/>
</clipPath>
</defs>
</svg>
